<?xml version="1.0" encoding="utf-8"?><!-- Generator: Adobe Illustrator 28.0.0, SVG Export Plug-In . SVG Version: 6.00 Build 0)  -->
<svg version="1.1" id="Layer_1" xmlns="http://www.w3.org/2000/svg" x="0px" y="0px" width="250px"
    height="250px" viewBox="0 0 250 250" style="enable-background:new 0 0 250 250;" xml:space="preserve">
<style type="text/css">
	.st0{fill:#F0F2F8;}
	.st1{opacity:0.57;}
	.st2{fill:#43596D;}
	.st3{opacity:0.2;fill:#242B52;enable-background:new    ;}
	.st5{opacity:0.2;fill:#2F1D00;enable-background:new    ;}
	.st6{opacity:0.13;fill:#FFDE96;enable-background:new    ;}
	.st7{fill:#007874;}
	.st8{opacity:0.3;fill:#F1F3BE;enable-background:new    ;}
	.st9{opacity:0.71;fill:#005A56;enable-background:new    ;}
	.st10{opacity:0.1;fill:#242B52;enable-background:new    ;}
	.st11{fill:#00C48B;}
	.st12{opacity:0.5;}
	.st13{fill:#001230;}
	.st14{opacity:0.15;fill:#242B52;enable-background:new    ;}
	.st15{fill:#B4BDC5;}
	.st16{fill:#7D8191;}
	.st17{fill:#E6E7E8;}
	.st18{fill:#566575;}
	.st19{fill:#00123E;}
	.st20{fill:#242B52;}
	.st21{fill:#9FA8B6;}
	.st22{fill:#E6E7E8;}
	.st23{opacity:0.2;fill:#FFFFFF;enable-background:new    ;}
	.st24{fill:#303A66;}
	.st25{fill:#DCDDDF;}
	.st26{fill:#FFFFFF;}
	.st27{fill:#E3E3E7;}
	.st28{fill:#EBEBEB;}
	.st29{fill:#1C75BC;}
	.st35{opacity:0.15;fill:#839AD6;enable-background:new    ;}
	.st36{fill:#DCE6FF;}
	.st37{fill:#AFB9D3;}
</style>
    <g>
	<g id="Layer_2_00000111154199164637551020000013112361094757672578_">
		<g id="trees_front_00000036238345202939681300000015999668563754155174_">
			<g>
				<g class="st1">
					<path class="st2"
                        d="M61.2,66.7c0,0.2,0.1,0.3,0.3,0.3s0.3-0.1,0.3-0.3s-0.1-0.3-0.3-0.3S61.2,66.5,61.2,66.7z" />
                    <path class="st2"
                        d="M112.4,56.8c0,0.2,0.2,0.4,0.4,0.4s0.4-0.2,0.4-0.4c0-0.2-0.2-0.4-0.4-0.4S112.4,56.5,112.4,56.8z" />
                    <circle class="st2" cx="77.7" cy="44.9" r="0.5" />
                    <path class="st2"
                        d="M107.2,48.2c0,0.2,0.1,0.3,0.3,0.3s0.3-0.1,0.3-0.3c0-0.2-0.1-0.3-0.3-0.3S107.2,48,107.2,48.2z" />
                    <path class="st2"
                        d="M36.3,57.3c0,0.2,0.1,0.3,0.3,0.3c0.2,0,0.3-0.1,0.3-0.3S36.8,57,36.6,57C36.4,57,36.3,57.1,36.3,57.3z" />
                    <path class="st2" d="M58.7,39c0,0.2,0.1,0.3,0.3,0.3c0.2,0,0.3-0.1,0.3-0.3c0-0.2-0.1-0.3-0.3-0.3C58.9,38.7,58.7,38.9,58.7,39
						z" />
                    <circle class="st2" cx="58.2" cy="49.4" r="0.6" />
                    <circle class="st2" cx="78.7" cy="31.3" r="0.6" />
                    <path class="st2"
                        d="M124.3,67.1c0,0.2,0.1,0.3,0.3,0.3s0.3-0.1,0.3-0.3s-0.1-0.3-0.3-0.3S124.3,66.9,124.3,67.1z" />
                    <path class="st2"
                        d="M45.3,71.9c0,0.2,0.1,0.3,0.3,0.3s0.3-0.1,0.3-0.3s-0.1-0.3-0.3-0.3S45.3,71.7,45.3,71.9z" />
                    <path class="st2"
                        d="M101.8,38.7c0,0.2,0.1,0.3,0.3,0.3s0.3-0.1,0.3-0.3c0-0.2-0.1-0.3-0.3-0.3S101.8,38.6,101.8,38.7z" />
                    <path class="st2" d="M128.4,30.7c0,0.2,0.1,0.3,0.3,0.3c0.2,0,0.3-0.1,0.3-0.3c0-0.2-0.1-0.3-0.3-0.3
						C128.5,30.4,128.4,30.5,128.4,30.7z" />
                    <circle class="st2" cx="92.1" cy="47.5" r="0.4" />
                    <path class="st2"
                        d="M56.6,84.4c0,0.2,0.1,0.3,0.3,0.3s0.3-0.1,0.3-0.3s-0.1-0.3-0.3-0.3S56.6,84.2,56.6,84.4z" />
                    <circle class="st2" cx="87.9" cy="57.6" r="0.2" />
                    <path class="st2"
                        d="M50.4,23.2c0,0.1,0.1,0.2,0.2,0.2s0.2-0.1,0.2-0.2c0-0.1-0.1-0.2-0.2-0.2S50.4,23.1,50.4,23.2z" />
                    <path class="st2" d="M77.5,90.7c0,0.1,0.1,0.2,0.2,0.2c0.1,0,0.2-0.1,0.2-0.2c0-0.1-0.1-0.2-0.2-0.2
						C77.6,90.6,77.5,90.6,77.5,90.7z" />
                    <path class="st2" d="M121.2,37.1c0,0.1,0.1,0.2,0.2,0.2c0.1,0,0.2-0.1,0.2-0.2s-0.1-0.2-0.2-0.2
						C121.3,37,121.2,37.1,121.2,37.1z" />
                    <path class="st2"
                        d="M42.9,39.2c0,0.2,0.1,0.3,0.3,0.3s0.3-0.1,0.3-0.3c0-0.2-0.1-0.3-0.3-0.3S42.9,39,42.9,39.2z" />
                    <circle class="st2" cx="181" cy="42.7" r="0.5" />
                    <path class="st2"
                        d="M151.4,46c0,0.2-0.1,0.3-0.3,0.3s-0.3-0.1-0.3-0.3c0-0.2,0.1-0.3,0.3-0.3S151.4,45.8,151.4,46z" />
                    <path class="st2" d="M222.3,55.1c0,0.2-0.1,0.3-0.3,0.3c-0.2,0-0.3-0.1-0.3-0.3s0.1-0.3,0.3-0.3
						C222.2,54.8,222.3,54.9,222.3,55.1z" />
                    <path class="st2" d="M199.9,36.8c0,0.2-0.1,0.3-0.3,0.3c-0.2,0-0.3-0.1-0.3-0.3c0-0.2,0.1-0.3,0.3-0.3
						C199.7,36.5,199.9,36.6,199.9,36.8z" />
                    <path class="st2" d="M185.6,62.1c0,0.2-0.1,0.3-0.3,0.3c-0.2,0-0.3-0.1-0.3-0.3s0.1-0.3,0.3-0.3
						C185.5,61.8,185.6,61.9,185.6,62.1z" />
                    <circle class="st2" cx="202" cy="59.8" r="0.6" />
                    <circle class="st2" cx="184.4" cy="77.6" r="0.6" />
                    <circle class="st2" cx="213.9" cy="44.1" r="0.6" />
                    <path class="st2" d="M156.8,36.5c0,0.2-0.1,0.3-0.3,0.3c-0.2,0-0.3-0.1-0.3-0.3c0-0.2,0.1-0.3,0.3-0.3
						C156.7,36.2,156.8,36.3,156.8,36.5z" />
                    <path class="st2" d="M222.6,26.4c0,0.2-0.1,0.3-0.3,0.3c-0.2,0-0.3-0.1-0.3-0.3c0-0.2,0.1-0.3,0.3-0.3
						C222.5,26.1,222.6,26.2,222.6,26.4z" />
                    <circle class="st2" cx="166.5" cy="45.2" r="0.4" />
                    <circle class="st2" cx="148.6" cy="56.2" r="0.4" />
                    <path class="st2"
                        d="M168.3,55.5c0,0.1-0.1,0.2-0.2,0.2s-0.2-0.1-0.2-0.2s0.1-0.2,0.2-0.2S168.3,55.4,168.3,55.5z" />
                    <path class="st2" d="M171.9,31c0,0.1-0.1,0.2-0.2,0.2c-0.1,0-0.2-0.1-0.2-0.2c0-0.1,0.1-0.2,0.2-0.2
						C171.9,30.9,171.9,30.9,171.9,31z" />
                    <path class="st2"
                        d="M133.4,55.4c0,0.1-0.1,0.2-0.2,0.2s-0.2-0.1-0.2-0.2s0.1-0.2,0.2-0.2S133.4,55.3,133.4,55.4z" />
                    <path class="st2"
                        d="M213.2,66.7c0,0.1-0.1,0.2-0.2,0.2s-0.2-0.1-0.2-0.2c0-0.1,0.1-0.2,0.2-0.2S213.2,66.6,213.2,66.7z" />
                    <path class="st2"
                        d="M136.4,39c0,0.1-0.1,0.2-0.2,0.2c-0.1,0-0.2-0.1-0.2-0.2s0.1-0.2,0.2-0.2C136.4,38.9,136.4,39,136.4,39z" />
                    <path class="st2" d="M199.7,48.5c0,0.2-0.1,0.3-0.3,0.3c-0.2,0-0.3-0.1-0.3-0.3c0-0.2,0.1-0.3,0.3-0.3
						C199.5,48.2,199.7,48.3,199.7,48.5z" />
				</g>
                <g>
					<g>
						<g>
							<polygon class="st13"
                                points="155.9,69.4 171.7,73.7 210.3,119.3 194.5,115.1 							" />
                            <polygon class="st14"
                                points="153.7,152.2 129.3,158.7 129.3,195.1 161.5,195.1 237.6,174.7 							" />
                            <g>
								<g>
									<polygon class="st15"
                                        points="49.6,155.8 129.3,177.2 129.3,195.1 49.6,173.7 									" />
                                    <polygon class="st16"
                                        points="194.5,159.7 194.5,177.6 129.3,195.1 129.3,177.2 									" />
								</g>
                                <polygon class="st17"
                                    points="49.6,105.7 129.3,127.1 129.3,192.1 49.6,170.7 								" />
                                <polygon class="st15"
                                    points="194.5,109.6 194.5,174.6 129.3,192.1 129.3,127.1 161.9,71.1 								" />
							</g>
                            <g>
								<g>
									<polygon class="st18"
                                        points="118.2,189.1 98.7,183.9 98.7,144.4 118.2,149.6 									" />
                                    <polygon class="st15"
                                        points="98.7,144.4 98.7,183.9 100.9,183.3 100.9,145 									" />
                                    <polygon class="st17"
                                        points="118.2,189.1 98.7,183.9 100.9,183.3 118.2,187.9 									" />
								</g>
                                <polygon class="st19"
                                    points="116.5,185.8 102.6,182.1 102.6,146.4 116.5,150.1 								" />
                                <polygon class="st20"
                                    points="115.9,183.6 105.5,180.8 105.5,154.7 115.9,157.5 								" />
                                <polygon class="st19"
                                    points="116.2,173.9 102.9,170.3 102.9,169.1 116.2,172.6 								" />
                                <polygon class="st19"
                                    points="116.2,163.3 102.9,159.7 102.9,158.4 116.2,162 								" />
                                <path class="st21"
                                    d="M114.8,170.1c0,0.6-0.4,0.9-0.8,0.8s-0.8-0.7-0.8-1.2s0.4-0.9,0.8-0.8S114.8,169.5,114.8,170.1z" />
							</g>
                            <g>
								<g>
									<g>
										<polygon class="st18"
                                            points="88.9,181.2 71.6,176.6 71.6,135.3 88.9,140 										" />
                                        <polygon class="st15"
                                            points="71.6,135.3 71.6,176.6 73.6,176 73.6,135.9 										" />
                                        <polygon class="st17"
                                            points="88.9,181.2 71.6,176.6 73.6,176 88.9,180.1 										" />
									</g>
                                    <polygon class="st22"
                                        points="87.4,178.3 75.1,175 75.1,137.1 87.4,140.4 									" />
								</g>
                                <g>
									<g>
										<polygon class="st18"
                                            points="71.6,176.6 54.2,172 54.2,130.7 71.6,135.4 										" />
                                        <polygon class="st15"
                                            points="54.2,130.7 54.2,172 56.3,171.4 56.3,131.3 										" />
                                        <polygon class="st17"
                                            points="71.6,176.6 54.2,172 56.3,171.4 71.6,175.5 										" />
									</g>
                                    <polygon class="st22"
                                        points="70.1,173.7 57.7,170.4 57.7,132.5 70.1,135.8 									" />
								</g>
							</g>
                            <g>
								<g>
									<g>
										<polygon class="st18"
                                            points="149.4,186.6 165.2,182.4 165.2,145 149.4,149.2 										" />
                                        <polygon class="st16"
                                            points="165.2,145 165.2,182.4 163.3,181.9 163.3,145.4 										" />
                                        <polygon class="st17"
                                            points="149.4,186.6 165.2,182.4 163.3,181.9 149.4,185.6 										" />
									</g>
                                    <polygon class="st22"
                                        points="150.7,184 162,180.9 162,146.6 150.7,149.6 									" />
								</g>
                                <g>
									<g>
										<polygon class="st18"
                                            points="165.2,182.4 180.9,178.2 180.9,140.7 165.2,145 										" />
                                        <polygon class="st16"
                                            points="180.9,140.7 180.9,178.2 179.1,177.7 179.1,141.2 										" />
                                        <polygon class="st17"
                                            points="165.2,182.4 180.9,178.2 179.1,177.7 165.2,181.4 										" />
									</g>
                                    <polygon class="st22"
                                        points="166.5,179.7 177.7,176.7 177.7,142.4 166.5,145.4 									" />
								</g>
							</g>
                            <g>
								<path class="st16" d="M157.8,106.9c-1.5,5.6,0.6,11,4.7,12.1c4.1,1.1,8.6-2.5,10.1-8.1c1.5-5.6-0.6-11-4.7-12.1
									C163.8,97.7,159.3,101.3,157.8,106.9L157.8,106.9z" />
                                <path class="st22" d="M157.8,106.9c1.2-4.6,4.5-7.9,8-8.3c2.8,2,4,6.5,2.8,11.1c-1.2,4.6-4.5,7.9-8,8.3
									C157.8,116,156.5,111.5,157.8,106.9z" />
                                <polygon class="st18"
                                    points="162.4,118.1 163.8,117.7 163.8,99.7 162.4,100.1 								" />
							</g>
                            <polygon class="st23"
                                points="49.6,105.7 129.3,127.1 49.6,170.7 							" />
                            <g>
								<polygon class="st24"
                                    points="34.5,107.7 133.1,134.1 133.1,139.9 34.5,113.5 								" />
                                <polygon class="st20"
                                    points="171.7,67.8 133.1,134.1 133.1,140 171.7,73.7 210.3,119.3 210.3,113.4 								" />
                                <polygon class="st2"
                                    points="73.1,41.4 171.7,67.8 133.1,134.1 34.5,107.7 								" />
							</g>
                            <g>
								<polygon class="st25"
                                    points="92.1,142.1 115,148.3 115,150.5 92.1,144.4 								" />
                                <polygon class="st26"
                                    points="92.1,142.1 115,148.3 122,146.4 99.1,140.2 								" />
                                <polygon class="st21"
                                    points="122,146.4 122,148.6 115,150.5 115,148.3 								" />
							</g>
                            <polygon class="st10"
                                points="194.5,109.6 194.5,174.6 129.3,192.1 							" />
                            <g>
								<polygon class="st20"
                                    points="142.4,93.6 66.5,73.3 51.7,98.7 127.6,119 								" />
                                <polygon class="st27"
                                    points="141.8,92.2 65.9,72 51.1,97.4 127,117.6 								" />
                                <path class="st14" d="M66.2,100.7L52.4,97l14.1-23.8l13.7,3.7L66.2,100.7z M95.3,80.8l-13.7-3.7L67.4,101l13.7,3.7
									L95.3,80.8z M110.3,84.8l-13.7-3.7L82.4,105l13.7,3.7L110.3,84.8L110.3,84.8z M125.3,88.9l-13.7-3.7L97.4,109l13.7,3.7
									L125.3,88.9z M140.3,92.9l-13.7-3.7L112.4,113l13.7,3.7L140.3,92.9L140.3,92.9z" />
                                <g>
									<polygon class="st28"
                                        points="66.3,72.6 52.1,96.4 65.9,100.1 80,76.2 									" />
                                    <path class="st29" d="M54.6,93.5l-1.3,2.1l0.1,0.4l2.3,0.6l0.5-0.2l1.3-2.1L57.4,94l-2.3-0.6L54.6,93.5z M56.3,90.7
										L55,92.8l0.1,0.4l2.3,0.6l0.5-0.2l1.3-2.1l-0.1-0.4l-2.3-0.6L56.3,90.7z M58,87.9L56.7,90l0.1,0.4l2.3,0.6l0.5-0.2l1.3-2.1
										l-0.1-0.4l-2.3-0.6C58.4,87.7,58,87.9,58,87.9z M59.7,85l-1.3,2.1l0.1,0.4l2.3,0.6l0.5-0.2l1.3-2.1l-0.1-0.4l-2.3-0.6
										L59.7,85z M61.3,82.2l-1.3,2.1l0.1,0.4l2.3,0.6l0.5-0.2l1.3-2.1l-0.1-0.4L61.8,82L61.3,82.2z M63,79.3l-1.3,2.1l0.1,0.4
										l2.3,0.6l0.5-0.2l1.3-2.1l-0.1-0.4l-2.3-0.6L63,79.3z M64.7,76.5l-1.3,2.1l0.1,0.4l2.3,0.6l0.5-0.2l1.3-2.1l-0.1-0.4
										l-2.3-0.6L64.7,76.5z M66.4,73.6l-1.3,2.1l0.1,0.4l2.3,0.6l0.5-0.2l1.3-2.1L69.2,74l-2.3-0.6L66.4,73.6z M57.7,94.4
										l-1.3,2.1l0.1,0.4l2.3,0.6l0.5-0.2l1.3-2.1l-0.1-0.4l-2.3-0.6L57.7,94.4z M59.4,91.5l-1.3,2.1l0.1,0.4l2.3,0.6l0.5-0.2
										l1.3-2.1L62.2,92l-2.3-0.6L59.4,91.5z M61.1,88.7l-1.3,2.1l0.1,0.4l2.3,0.6l0.5-0.2l1.3-2.1l-0.1-0.4l-2.3-0.6
										C61.6,88.5,61.1,88.7,61.1,88.7z M62.8,85.8L61.5,88l0.1,0.4l2.3,0.6l0.5-0.2l1.3-2.1l-0.1-0.4l-2.3-0.6L62.8,85.8z
										 M64.5,83l-1.3,2.1l0.1,0.4l2.3,0.6l0.5-0.2l1.3-2.1l-0.1-0.4L65,82.8L64.5,83z M66.2,80.1l-1.3,2.1l0.1,0.4l2.3,0.6
										l0.5-0.2l1.3-2.1L69,80.6l-2.3-0.6L66.2,80.1z M67.8,77.3l-1.3,2.1l0.1,0.4l2.3,0.6l0.5-0.2l1.3-2.1l-0.1-0.4l-2.3-0.6
										L67.8,77.3z M69.5,74.5l-1.3,2.1l0.1,0.4l2.3,0.6l0.5-0.2l1.3-2.1l-0.1-0.4L70,74.3L69.5,74.5z M60.9,95.2l-1.3,2.1
										l0.1,0.4l2.3,0.6l0.5-0.2l1.3-2.1l-0.1-0.4L61.3,95L60.9,95.2z M62.6,92.4l-1.3,2.1l0.1,0.4l2.3,0.6l0.5-0.2l1.3-2.1
										l-0.1-0.4L63,92.2L62.6,92.4z M64.2,89.5L63,91.6l0.1,0.4l2.3,0.6l0.5-0.2l1.3-2.1l-0.1-0.4l-2.3-0.6L64.2,89.5z
										 M65.9,86.7l-1.3,2.1l0.1,0.4l2.3,0.6l0.5-0.2l1.3-2.1l-0.1-0.4l-2.3-0.6C66.4,86.5,65.9,86.7,65.9,86.7z M67.6,83.8
										l-1.3,2.1l0.1,0.4l2.3,0.6l0.5-0.2l1.3-2.1l-0.1-0.4l-2.3-0.6L67.6,83.8z M69.3,81L68,83.1l0.1,0.4l2.3,0.6l0.5-0.2
										l1.3-2.1l-0.1-0.4l-2.3-0.6L69.3,81z M71,78.1l-1.3,2.1l0.1,0.4l2.3,0.6l0.5-0.2l1.3-2.1l-0.1-0.4l-2.3-0.6L71,78.1z
										 M72.7,75.3l-1.3,2.1l0.1,0.4l2.3,0.6l0.5-0.2l1.3-2.1l-0.1-0.4l-2.3-0.6C73.1,75.1,72.7,75.3,72.7,75.3z M64,96.1
										l-1.3,2.1l0.1,0.4l2.3,0.6l0.5-0.2l1.3-2.1l-0.1-0.4l-2.3-0.6L64,96.1z M65.7,93.2l-1.3,2.1l0.1,0.4l2.3,0.6l0.5-0.2
										l1.3-2.1l-0.1-0.4L66.2,93L65.7,93.2z M67.4,90.4l-1.3,2.1l0.1,0.4l2.3,0.6l0.5-0.2l1.3-2.1l-0.1-0.4l-2.3-0.6L67.4,90.4z
										 M69.1,87.5l-1.3,2.1L68,90l2.3,0.6l0.5-0.2l1.3-2.1l-0.1-0.4l-2.3-0.6C69.5,87.3,69.1,87.5,69.1,87.5z M70.7,84.7
										l-1.3,2.1l0.1,0.4l2.3,0.6l0.5-0.2l1.3-2.1l-0.1-0.4l-2.3-0.6L70.7,84.7z M72.4,81.8l-1.3,2.1l0.1,0.4l2.3,0.6l0.5-0.2
										l1.3-2.1l-0.1-0.4l-2.3-0.6L72.4,81.8z M74.1,79l-1.3,2.1l0.1,0.4l2.3,0.6l0.5-0.2l1.3-2.1l-0.1-0.4l-2.3-0.6
										C74.6,78.8,74.1,79,74.1,79z M75.8,76.1l-1.3,2.1l0.1,0.4l2.3,0.6l0.5-0.2l1.3-2.1l-0.1-0.4l-2.3-0.6L75.8,76.1z" />
								</g>
                                <g>
									<polygon class="st28"
                                        points="81.3,76.6 67.1,100.4 80.9,104.1 95,80.2 									" />
                                    <path class="st29" d="M69.6,97.6l-1.3,2.1l0.1,0.4l2.3,0.6l0.5-0.2l1.3-2.1L72.4,98l-2.3-0.6L69.6,97.6z M71.3,94.7
										L70,96.8l0.1,0.4l2.3,0.6l0.5-0.2l1.3-2.1l-0.1-0.4l-2.3-0.6L71.3,94.7z M73,91.9L71.7,94l0.1,0.4l2.3,0.6l0.5-0.2l1.3-2.1
										l-0.1-0.4l-2.3-0.6C73.4,91.7,73,91.9,73,91.9z M74.7,89l-1.3,2.1l0.1,0.4l2.3,0.6l0.5-0.2l1.3-2.1l-0.1-0.4l-2.3-0.6
										C75.1,88.8,74.7,89,74.7,89z M76.3,86.2l-1.3,2.1l0.1,0.4l2.3,0.6l0.5-0.2l1.3-2.1l-0.1-0.4L76.8,86L76.3,86.2z M78,83.3
										l-1.3,2.1l0.1,0.4l2.3,0.6l0.5-0.2l1.3-2.1l-0.1-0.4l-2.3-0.6L78,83.3z M79.7,80.5l-1.3,2.1l0.1,0.4l2.3,0.6l0.5-0.2
										l1.3-2.1l-0.1-0.4l-2.3-0.6L79.7,80.5z M81.4,77.6l-1.3,2.1l0.1,0.4l2.3,0.6l0.5-0.2l1.3-2.1l-0.1-0.4l-2.3-0.6L81.4,77.6z
										 M72.7,98.4l-1.3,2.1l0.1,0.4l2.3,0.6l0.5-0.2l1.3-2.1l-0.1-0.4l-2.3-0.6L72.7,98.4z M74.4,95.5l-1.3,2.1l0.1,0.4l2.3,0.6
										l0.5-0.2l1.3-2.1L77.2,96l-2.3-0.6L74.4,95.5z M76.1,92.7l-1.3,2.1l0.1,0.4l2.3,0.6l0.5-0.2l1.3-2.1l-0.1-0.4l-2.3-0.6
										L76.1,92.7z M77.8,89.8L76.5,92l0.1,0.4L79,93l0.5-0.2l1.3-2.1l-0.1-0.4l-2.3-0.6L77.8,89.8z M79.5,87l-1.3,2.1l0.1,0.4
										l2.3,0.6l0.5-0.2l1.3-2.1l-0.1-0.4L80,86.8C80,86.8,79.5,87,79.5,87z M81.2,84.2l-1.3,2.1l0.1,0.4l2.3,0.6l0.5-0.2l1.3-2.1
										L84,84.6L81.6,84L81.2,84.2z M82.8,81.3l-1.3,2.1l0.1,0.4l2.3,0.6l0.5-0.2l1.3-2.1l-0.1-0.4l-2.3-0.6L82.8,81.3z
										 M84.5,78.5l-1.3,2.1l0.1,0.4l2.3,0.6l0.5-0.2l1.3-2.1l-0.1-0.4L85,78.3L84.5,78.5z M75.9,99.2l-1.3,2.1l0.1,0.4l2.3,0.6
										l0.5-0.2l1.3-2.1l-0.1-0.4L76.3,99L75.9,99.2z M77.6,96.4l-1.3,2.1l0.1,0.4l2.3,0.6l0.5-0.2l1.3-2.1l-0.1-0.4L78,96.2
										L77.6,96.4z M79.2,93.5L78,95.6l0.1,0.4l2.3,0.6l0.5-0.2l1.3-2.1L82.1,94l-2.3-0.6L79.2,93.5z M80.9,90.7l-1.3,2.1l0.1,0.4
										l2.3,0.6l0.5-0.2l1.3-2.1l-0.1-0.4l-2.3-0.6L80.9,90.7z M82.6,87.8L81.4,90l0.1,0.4l2.3,0.6l0.5-0.2l1.3-2.1l-0.1-0.4
										l-2.3-0.6C83.1,87.6,82.6,87.8,82.6,87.8z M84.3,85L83,87.1l0.1,0.4l2.3,0.6l0.5-0.2l1.3-2.1l-0.1-0.4l-2.3-0.6L84.3,85z
										 M86,82.1l-1.3,2.1l0.1,0.4l2.3,0.6l0.5-0.2l1.3-2.1l-0.1-0.4l-2.3-0.6L86,82.1z M87.7,79.3l-1.3,2.1l0.1,0.4l2.3,0.6
										l0.5-0.2l1.3-2.1l-0.1-0.4l-2.3-0.6L87.7,79.3z M79,100.1l-1.3,2.1l0.1,0.4l2.3,0.6l0.5-0.2l1.3-2.1l-0.1-0.4l-2.3-0.6
										L79,100.1z M80.7,97.2l-1.3,2.1l0.1,0.4l2.3,0.6l0.5-0.2l1.3-2.1l-0.1-0.4L81.2,97L80.7,97.2z M82.4,94.4l-1.3,2.1l0.1,0.4
										l2.3,0.6l0.5-0.2l1.3-2.1l-0.1-0.4l-2.3-0.6L82.4,94.4z M84.1,91.5l-1.3,2.1L83,94l2.3,0.6l0.5-0.2l1.3-2.1l-0.1-0.4
										l-2.3-0.6L84.1,91.5z M85.7,88.7l-1.3,2.1l0.1,0.4l2.3,0.6l0.5-0.2l1.3-2.1l-0.1-0.4l-2.3-0.6
										C86.2,88.5,85.7,88.7,85.7,88.7z M87.4,85.8l-1.3,2.1l0.1,0.4l2.3,0.6l0.5-0.2l1.3-2.1l-0.1-0.4l-2.3-0.6L87.4,85.8z
										 M89.1,83l-1.3,2.1l0.1,0.4l2.3,0.6l0.5-0.2l1.3-2.1l-0.1-0.4l-2.3-0.6L89.1,83z M90.8,80.1l-1.3,2.1l0.1,0.4l2.3,0.6
										l0.5-0.2l1.3-2.1l-0.1-0.4l-2.3-0.6L90.8,80.1z" />
								</g>
                                <g>
									<polygon class="st28"
                                        points="96.3,80.6 82.1,104.4 95.9,108.1 110,84.2 									" />
                                    <path class="st29" d="M84.6,101.6l-1.3,2.1l0.1,0.4l2.3,0.6l0.5-0.2l1.3-2.1l-0.1-0.4l-2.3-0.6L84.6,101.6z M86.3,98.7
										l-1.3,2.1l0.1,0.4l2.3,0.6l0.5-0.2l1.3-2.1l-0.1-0.4l-2.3-0.6L86.3,98.7z M88,95.9L86.7,98l0.1,0.4l2.3,0.6l0.5-0.2
										l1.3-2.1l-0.1-0.4l-2.3-0.6L88,95.9z M89.7,93l-1.3,2.1l0.1,0.4l2.3,0.6l0.5-0.2l1.3-2.1l-0.1-0.4l-2.3-0.6L89.7,93z
										 M91.3,90.2l-1.3,2.1l0.1,0.4l2.3,0.6l0.5-0.2l1.3-2.1l-0.1-0.4L91.8,90L91.3,90.2z M93,87.3l-1.3,2.1l0.1,0.4l2.3,0.6
										l0.5-0.2l1.3-2.1l-0.1-0.4l-2.3-0.6C93.5,87.1,93,87.3,93,87.3z M94.7,84.5l-1.3,2.1l0.1,0.4l2.3,0.6l0.5-0.2l1.3-2.1
										l-0.1-0.4l-2.3-0.6L94.7,84.5z M96.4,81.6l-1.3,2.1l0.1,0.4l2.3,0.6l0.5-0.2l1.3-2.1l-0.1-0.4l-2.3-0.6L96.4,81.6z
										 M87.7,102.4l-1.3,2.1l0.1,0.4l2.3,0.6l0.5-0.2l1.3-2.1l-0.1-0.4l-2.3-0.6L87.7,102.4z M89.4,99.5l-1.3,2.1l0.1,0.4
										l2.3,0.6l0.5-0.2l1.3-2.1l-0.1-0.4l-2.3-0.6L89.4,99.5z M91.1,96.7l-1.3,2.1l0.1,0.4l2.3,0.6l0.5-0.2l1.3-2.1l-0.1-0.4
										l-2.3-0.6L91.1,96.7z M92.8,93.9L91.5,96l0.1,0.4L94,97l0.5-0.2l1.3-2.1l-0.1-0.4l-2.3-0.6L92.8,93.9z M94.5,91l-1.3,2.1
										l0.1,0.4l2.3,0.6l0.5-0.2l1.3-2.1l-0.1-0.4L95,90.8L94.5,91z M96.2,88.2l-1.3,2.1l0.1,0.4l2.3,0.6l0.5-0.2l1.3-2.1L99,88.6
										L96.6,88C96.6,88,96.2,88.2,96.2,88.2z M97.8,85.3l-1.3,2.1l0.1,0.4l2.3,0.6l0.5-0.2l1.3-2.1l-0.1-0.4l-2.3-0.6L97.8,85.3z
										 M99.5,82.5l-1.3,2.1l0.1,0.4l2.3,0.6l0.5-0.2l1.3-2.1l-0.1-0.4l-2.3-0.6L99.5,82.5z M90.9,103.2l-1.3,2.1l0.1,0.4l2.3,0.6
										l0.5-0.2l1.3-2.1l-0.1-0.4l-2.3-0.6L90.9,103.2z M92.6,100.4l-1.3,2.1l0.1,0.4l2.3,0.6l0.5-0.2l1.3-2.1l-0.1-0.4l-2.3-0.6
										L92.6,100.4z M94.2,97.5L93,99.7l0.1,0.4l2.3,0.6l0.5-0.2l1.3-2.1L97.1,98l-2.3-0.6L94.2,97.5z M95.9,94.7l-1.3,2.1
										l0.1,0.4l2.3,0.6l0.5-0.2l1.3-2.1l-0.1-0.4l-2.3-0.6L95.9,94.7z M97.6,91.8L96.4,94l0.1,0.4l2.3,0.6l0.5-0.2l1.3-2.1
										l-0.1-0.4l-2.3-0.6L97.6,91.8z M99.3,89L98,91.1l0.1,0.4l2.3,0.6l0.5-0.2l1.3-2.1l-0.1-0.4l-2.3-0.6
										C99.8,88.8,99.3,89,99.3,89z M101,86.1l-1.3,2.1l0.1,0.4l2.3,0.6l0.5-0.2l1.3-2.1l-0.1-0.4l-2.3-0.6L101,86.1z M102.7,83.3
										l-1.3,2.1l0.1,0.4l2.3,0.6l0.5-0.2l1.3-2.1l-0.1-0.4l-2.3-0.6L102.7,83.3z M94,104.1l-1.3,2.1l0.1,0.4l2.3,0.6l0.5-0.2
										l1.3-2.1l-0.1-0.4l-2.3-0.6L94,104.1z M95.7,101.2l-1.3,2.1l0.1,0.4l2.3,0.6l0.5-0.2l1.3-2.1l-0.1-0.4l-2.3-0.6L95.7,101.2
										z M97.4,98.4l-1.3,2.1l0.1,0.4l2.3,0.6l0.5-0.2l1.3-2.1l-0.1-0.4l-2.3-0.6L97.4,98.4z M99.1,95.5l-1.3,2.1L98,98l2.3,0.6
										l0.5-0.2l1.3-2.1l-0.1-0.4l-2.3-0.6L99.1,95.5z M100.7,92.7l-1.3,2.1l0.1,0.4l2.3,0.6l0.5-0.2l1.3-2.1l-0.1-0.4l-2.3-0.6
										L100.7,92.7z M102.4,89.8l-1.3,2.1l0.1,0.4l2.3,0.6l0.5-0.2l1.3-2.1l-0.1-0.4l-2.3-0.6L102.4,89.8z M104.1,87l-1.3,2.1
										l0.1,0.4l2.3,0.6l0.5-0.2l1.3-2.1l-0.1-0.4l-2.3-0.6C104.6,86.8,104.1,87,104.1,87z M105.8,84.1l-1.3,2.1l0.1,0.4l2.3,0.6
										l0.5-0.2l1.3-2.1l-0.1-0.4l-2.3-0.6L105.8,84.1z" />
								</g>
                                <g>
									<polygon class="st28"
                                        points="111.3,84.6 97.1,108.4 110.9,112.1 125,88.3 									" />
                                    <path class="st29" d="M99.6,105.6l-1.3,2.1l0.1,0.4l2.3,0.6l0.5-0.2l1.3-2.1l-0.1-0.4l-2.3-0.6L99.6,105.6z M101.3,102.7
										l-1.3,2.1l0.1,0.4l2.3,0.6l0.5-0.2l1.3-2.1l-0.1-0.4l-2.3-0.6L101.3,102.7z M103,99.9l-1.3,2.1l0.1,0.4l2.3,0.6l0.5-0.2
										l1.3-2.1l-0.1-0.4l-2.3-0.6L103,99.9z M104.7,97l-1.3,2.1l0.1,0.4l2.3,0.6l0.5-0.2l1.3-2.1l-0.1-0.4l-2.3-0.6L104.7,97z
										 M106.3,94.2l-1.3,2.1l0.1,0.4l2.3,0.6l0.5-0.2l1.3-2.1l-0.1-0.4l-2.3-0.6L106.3,94.2z M108,91.3l-1.3,2.1l0.1,0.4l2.3,0.6
										l0.5-0.2l1.3-2.1l-0.1-0.4l-2.3-0.6L108,91.3z M109.7,88.5l-1.3,2.1l0.1,0.4l2.3,0.6l0.5-0.2l1.3-2.1l-0.1-0.4l-2.3-0.6
										C110.2,88.3,109.7,88.5,109.7,88.5z M111.4,85.6l-1.3,2.1l0.1,0.4l2.3,0.6l0.5-0.2l1.3-2.1l-0.1-0.4l-2.3-0.6L111.4,85.6z
										 M102.7,106.4l-1.3,2.1l0.1,0.4l2.3,0.6l0.5-0.2l1.3-2.1l-0.1-0.4l-2.3-0.6L102.7,106.4z M104.4,103.6l-1.3,2.1l0.1,0.4
										l2.3,0.6l0.5-0.2l1.3-2.1l-0.1-0.4l-2.3-0.6L104.4,103.6z M106.1,100.7l-1.3,2.1l0.1,0.4l2.3,0.6l0.5-0.2l1.3-2.1l-0.1-0.4
										l-2.3-0.6L106.1,100.7z M107.8,97.9l-1.3,2.1l0.1,0.4l2.3,0.6l0.5-0.2l1.3-2.1l-0.1-0.4l-2.3-0.6L107.8,97.9z M109.5,95
										l-1.3,2.1l0.1,0.4l2.3,0.6l0.5-0.2l1.3-2.1l-0.1-0.4l-2.3-0.6L109.5,95z M111.2,92.2l-1.3,2.1l0.1,0.4l2.3,0.6l0.5-0.2
										l1.3-2.1l-0.1-0.4l-2.3-0.6L111.2,92.2z M112.8,89.3l-1.3,2.1l0.1,0.4l2.3,0.6l0.5-0.2l1.3-2.1l-0.1-0.4l-2.3-0.6
										L112.8,89.3z M114.5,86.5l-1.3,2.1l0.1,0.4l2.3,0.6l0.5-0.2l1.3-2.1l-0.1-0.4l-2.3-0.6C115,86.3,114.5,86.5,114.5,86.5z
										 M105.9,107.2l-1.3,2.1l0.1,0.4l2.3,0.6l0.5-0.2l1.3-2.1l-0.1-0.4l-2.3-0.6L105.9,107.2z M107.6,104.4l-1.3,2.1l0.1,0.4
										l2.3,0.6l0.5-0.2l1.3-2.1l-0.1-0.4l-2.3-0.6L107.6,104.4z M109.2,101.5l-1.3,2.1l0.1,0.4l2.3,0.6l0.5-0.2l1.3-2.1l-0.1-0.4
										l-2.3-0.6L109.2,101.5z M110.9,98.7l-1.3,2.1l0.1,0.4l2.3,0.6l0.5-0.2l1.3-2.1l-0.1-0.4l-2.3-0.6L110.9,98.7z M112.6,95.8
										l-1.3,2.1l0.1,0.4l2.3,0.6l0.5-0.2l1.3-2.1l-0.1-0.4l-2.3-0.6L112.6,95.8z M114.3,93l-1.3,2.1l0.1,0.4l2.3,0.6l0.5-0.2
										l1.3-2.1l-0.1-0.4l-2.3-0.6L114.3,93z M116,90.2l-1.3,2.1l0.1,0.4l2.3,0.6l0.5-0.2l1.3-2.1l-0.1-0.4l-2.3-0.6L116,90.2z
										 M117.7,87.3l-1.3,2.1l0.1,0.4l2.3,0.6l0.5-0.2l1.3-2.1l-0.1-0.4l-2.3-0.6C118.1,87.1,117.7,87.3,117.7,87.3z M109,108.1
										l-1.3,2.1l0.1,0.4l2.3,0.6l0.5-0.2l1.3-2.1l-0.1-0.4l-2.3-0.6L109,108.1z M110.7,105.2l-1.3,2.1l0.1,0.4l2.3,0.6l0.5-0.2
										l1.3-2.1l-0.1-0.4l-2.3-0.6L110.7,105.2z M112.4,102.4l-1.3,2.1l0.1,0.4l2.3,0.6l0.5-0.2l1.3-2.1l-0.1-0.4l-2.3-0.6
										L112.4,102.4z M114.1,99.5l-1.3,2.1l0.1,0.4l2.3,0.6l0.5-0.2l1.3-2.1l-0.1-0.4l-2.3-0.6L114.1,99.5z M115.7,96.7l-1.3,2.1
										l0.1,0.4l2.3,0.6l0.5-0.2l1.3-2.1l-0.1-0.4l-2.3-0.6L115.7,96.7z M117.4,93.8l-1.3,2.1l0.1,0.4l2.3,0.6l0.5-0.2l1.3-2.1
										l-0.1-0.4l-2.3-0.6L117.4,93.8z M119.1,91l-1.3,2.1l0.1,0.4l2.3,0.6l0.5-0.2l1.3-2.1l-0.1-0.4l-2.3-0.6L119.1,91z
										 M120.8,88.1l-1.3,2.1l0.1,0.4l2.3,0.6l0.5-0.2l1.3-2.1l-0.1-0.4l-2.3-0.6C121.3,87.9,120.8,88.1,120.8,88.1z" />
								</g>
                                <g>
									<polygon class="st28"
                                        points="126.3,88.6 112.1,112.4 125.9,116.1 140,92.3 									" />
                                    <path class="st29" d="M114.6,109.6l-1.3,2.1l0.1,0.4l2.3,0.6l0.5-0.2l1.3-2.1l-0.1-0.4l-2.3-0.6L114.6,109.6z M116.3,106.7
										l-1.3,2.1l0.1,0.4l2.3,0.6l0.5-0.2l1.3-2.1l-0.1-0.4l-2.3-0.6L116.3,106.7z M118,103.9l-1.3,2.1l0.1,0.4l2.3,0.6l0.5-0.2
										l1.3-2.1l-0.1-0.4l-2.3-0.6L118,103.9z M119.7,101l-1.3,2.1l0.1,0.4l2.3,0.6l0.5-0.2l1.3-2.1l-0.1-0.4l-2.3-0.6L119.7,101z
										 M121.3,98.2l-1.3,2.1l0.1,0.4l2.3,0.6l0.5-0.2l1.3-2.1l-0.1-0.4l-2.3-0.6L121.3,98.2z M123,95.3l-1.3,2.1l0.1,0.4l2.3,0.6
										l0.5-0.2l1.3-2.1l-0.1-0.4l-2.3-0.6L123,95.3z M124.7,92.5l-1.3,2.1l0.1,0.4l2.3,0.6l0.5-0.2l1.3-2.1l-0.1-0.4l-2.3-0.6
										L124.7,92.5z M126.4,89.6l-1.3,2.1l0.1,0.4l2.3,0.6l0.5-0.2l1.3-2.1l-0.1-0.4l-2.3-0.6L126.4,89.6z M117.7,110.4l-1.3,2.1
										l0.1,0.4l2.3,0.6l0.5-0.2l1.3-2.1l-0.1-0.4l-2.3-0.6L117.7,110.4z M119.4,107.6l-1.3,2.1l0.1,0.4l2.3,0.6l0.5-0.2l1.3-2.1
										l-0.1-0.4l-2.3-0.6L119.4,107.6z M121.1,104.7l-1.3,2.1l0.1,0.4l2.3,0.6l0.5-0.2l1.3-2.1l-0.1-0.4l-2.3-0.6L121.1,104.7z
										 M122.8,101.9l-1.3,2.1l0.1,0.4l2.3,0.6l0.5-0.2l1.3-2.1l-0.1-0.4l-2.3-0.6L122.8,101.9z M124.5,99l-1.3,2.1l0.1,0.4
										l2.3,0.6l0.5-0.2l1.3-2.1l-0.1-0.4l-2.3-0.6L124.5,99z M126.2,96.2l-1.3,2.1l0.1,0.4l2.3,0.6l0.5-0.2l1.3-2.1l-0.1-0.4
										l-2.3-0.6L126.2,96.2z M127.8,93.3l-1.3,2.1l0.1,0.4l2.3,0.6l0.5-0.2l1.3-2.1l-0.1-0.4l-2.3-0.6L127.8,93.3z M129.5,90.5
										l-1.3,2.1l0.1,0.4l2.3,0.6l0.5-0.2l1.3-2.1l-0.1-0.4l-2.3-0.6L129.5,90.5z M120.9,111.2l-1.3,2.1l0.1,0.4l2.3,0.6l0.5-0.2
										l1.3-2.1l-0.1-0.4l-2.3-0.6L120.9,111.2z M122.6,108.4l-1.3,2.1l0.1,0.4l2.3,0.6l0.5-0.2l1.3-2.1l-0.1-0.4l-2.3-0.6
										L122.6,108.4z M124.2,105.5l-1.3,2.1l0.1,0.4l2.3,0.6l0.5-0.2l1.3-2.1l-0.1-0.4l-2.3-0.6L124.2,105.5z M125.9,102.7
										l-1.3,2.1l0.1,0.4l2.3,0.6l0.5-0.2l1.3-2.1l-0.1-0.4l-2.3-0.6L125.9,102.7z M127.6,99.9l-1.3,2.1l0.1,0.4l2.3,0.6l0.5-0.2
										l1.3-2.1l-0.1-0.4l-2.3-0.6L127.6,99.9z M129.3,97l-1.3,2.1l0.1,0.4l2.3,0.6l0.5-0.2l1.3-2.1l-0.1-0.4l-2.3-0.6L129.3,97z
										 M131,94.2l-1.3,2.1l0.1,0.4l2.3,0.6l0.5-0.2l1.3-2.1l-0.1-0.4l-2.3-0.6L131,94.2z M132.7,91.3l-1.3,2.1l0.1,0.4l2.3,0.6
										l0.5-0.2l1.3-2.1l-0.1-0.4l-2.3-0.6L132.7,91.3z M124,112.1l-1.3,2.1l0.1,0.4l2.3,0.6l0.5-0.2l1.3-2.1l-0.1-0.4l-2.3-0.6
										L124,112.1z M125.7,109.2l-1.3,2.1l0.1,0.4l2.3,0.6l0.5-0.2l1.3-2.1l-0.1-0.4l-2.3-0.6L125.7,109.2z M127.4,106.4l-1.3,2.1
										l0.1,0.4l2.3,0.6l0.5-0.2l1.3-2.1l-0.1-0.4l-2.3-0.6L127.4,106.4z M129.1,103.5l-1.3,2.1l0.1,0.4l2.3,0.6l0.5-0.2l1.3-2.1
										l-0.1-0.4l-2.3-0.6L129.1,103.5z M130.7,100.7l-1.3,2.1l0.1,0.4l2.3,0.6l0.5-0.2l1.3-2.1l-0.1-0.4l-2.3-0.6L130.7,100.7z
										 M132.4,97.8l-1.3,2.1l0.1,0.4l2.3,0.6l0.5-0.2l1.3-2.1l-0.1-0.4l-2.3-0.6L132.4,97.8z M134.1,95l-1.3,2.1l0.1,0.4l2.3,0.6
										l0.5-0.2l1.3-2.1l-0.1-0.4l-2.3-0.6L134.1,95z M135.8,92.2l-1.3,2.1l0.1,0.4l2.3,0.6l0.5-0.2l1.3-2.1l-0.1-0.4l-2.3-0.6
										L135.8,92.2z" />
								</g>
                                <polygon class="st23"
                                    points="141.8,92.2 51.1,97.4 65.9,72 								" />
							</g>						
						</g>
						
					</g>

                    <linearGradient id="SVGID_00000008850022470326711970000013291362353266485146_"
                        gradientUnits="userSpaceOnUse" x1="6247.9893" y1="-4802.3584" x2="6264.0972"
                        y2="-4835.6343"
                        gradientTransform="matrix(0.4357 -0.9001 -0.9001 -0.4357 -6894.0825 3687.1116)">
						<stop offset="0" style="stop-color:#FFFFFF" />
                        <stop offset="5.000000e-02" style="stop-color:#E1E1E1;stop-opacity:0.88" />
                        <stop offset="0.15" style="stop-color:#ADADAD;stop-opacity:0.68" />
                        <stop offset="0.26" style="stop-color:#7E7E7E;stop-opacity:0.5" />
                        <stop offset="0.37" style="stop-color:#575757;stop-opacity:0.34" />
                        <stop offset="0.48" style="stop-color:#373737;stop-opacity:0.22" />
                        <stop offset="0.6" style="stop-color:#1F1F1F;stop-opacity:0.12" />
                        <stop offset="0.72" style="stop-color:#0D0D0D;stop-opacity:5.000000e-02" />
                        <stop offset="0.85" style="stop-color:#030303;stop-opacity:1.000000e-02" />
                        <stop offset="1" style="stop-color:#000000;stop-opacity:0" />
					</linearGradient>


                    <linearGradient id="SVGID_00000176012124219207183830000013313159481503220903_"
                        gradientUnits="userSpaceOnUse" x1="3148.5454" y1="1593.6543" x2="3164.6523"
                        y2="1560.3734"
                        gradientTransform="matrix(-0.4357 -0.9001 0.9001 -0.4357 24.8129 3687.1116)">
						<stop offset="0" style="stop-color:#FFFFFF" />
                        <stop offset="5.000000e-02" style="stop-color:#E1E1E1;stop-opacity:0.88" />
                        <stop offset="0.15" style="stop-color:#ADADAD;stop-opacity:0.68" />
                        <stop offset="0.26" style="stop-color:#7E7E7E;stop-opacity:0.5" />
                        <stop offset="0.37" style="stop-color:#575757;stop-opacity:0.34" />
                        <stop offset="0.48" style="stop-color:#373737;stop-opacity:0.22" />
                        <stop offset="0.6" style="stop-color:#1F1F1F;stop-opacity:0.12" />
                        <stop offset="0.72" style="stop-color:#0D0D0D;stop-opacity:5.000000e-02" />
                        <stop offset="0.85" style="stop-color:#030303;stop-opacity:1.000000e-02" />
                        <stop offset="1" style="stop-color:#000000;stop-opacity:0" />
					</linearGradient>


                    <linearGradient id="SVGID_00000006682838046416445190000007912628126126133650_"
                        gradientUnits="userSpaceOnUse" x1="157.2955" y1="143.2004" x2="200.5282"
                        y2="143.2004" gradientTransform="matrix(1 0 0 -1 0 252)">
						<stop offset="0" style="stop-color:#FFFFFF" />
                        <stop offset="5.000000e-02" style="stop-color:#E1E1E1;stop-opacity:0.88" />
                        <stop offset="0.15" style="stop-color:#ADADAD;stop-opacity:0.68" />
                        <stop offset="0.26" style="stop-color:#7E7E7E;stop-opacity:0.5" />
                        <stop offset="0.37" style="stop-color:#575757;stop-opacity:0.34" />
                        <stop offset="0.48" style="stop-color:#373737;stop-opacity:0.22" />
                        <stop offset="0.6" style="stop-color:#1F1F1F;stop-opacity:0.12" />
                        <stop offset="0.72" style="stop-color:#0D0D0D;stop-opacity:5.000000e-02" />
                        <stop offset="0.85" style="stop-color:#030303;stop-opacity:1.000000e-02" />
                        <stop offset="1" style="stop-color:#000000;stop-opacity:0" />
					</linearGradient>


                    <radialGradient id="SVGID_00000150070053080442979450000014960995331271641791_"
                        cx="165.1603" cy="89.2283" r="73.1725"
                        gradientTransform="matrix(1 0 0 -1 3.606023e-04 251.9995)"
                        gradientUnits="userSpaceOnUse">
						<stop offset="0" style="stop-color:#FFFFFF" />
                        <stop offset="0.15" style="stop-color:#FFFFFF;stop-opacity:0.77" />
                        <stop offset="0.32" style="stop-color:#FFFFFF;stop-opacity:0.54" />
                        <stop offset="0.49" style="stop-color:#FFFFFF;stop-opacity:0.35" />
                        <stop offset="0.64" style="stop-color:#FFFFFF;stop-opacity:0.2" />
                        <stop offset="0.78" style="stop-color:#FFFFFF;stop-opacity:9.000000e-02" />
                        <stop offset="0.91" style="stop-color:#FFFFFF;stop-opacity:2.000000e-02" />
                        <stop offset="1" style="stop-color:#FFFFFF;stop-opacity:0" />
					</radialGradient>


                    <radialGradient id="SVGID_00000061473777092249713230000002780956773261524395_"
                        cx="73.165" cy="95.5579" r="73.1725" fx="145.3225" fy="107.703"
                        gradientTransform="matrix(1 0 0 -1 7.568386e-03 251.9984)"
                        gradientUnits="userSpaceOnUse">
						<stop offset="0" style="stop-color:#FFFFFF" />
                        <stop offset="0.15" style="stop-color:#C4C4C4;stop-opacity:0.77" />
                        <stop offset="0.32" style="stop-color:#898989;stop-opacity:0.54" />
                        <stop offset="0.49" style="stop-color:#585858;stop-opacity:0.35" />
                        <stop offset="0.64" style="stop-color:#313131;stop-opacity:0.2" />
                        <stop offset="0.78" style="stop-color:#161616;stop-opacity:9.000000e-02" />
                        <stop offset="0.91" style="stop-color:#050505;stop-opacity:2.000000e-02" />
                        <stop offset="1" style="stop-color:#000000;stop-opacity:0" />
					</radialGradient>
					
				</g>
                <g>
					<circle class="st35" cx="173.9" cy="44.5" r="15.8" />
                    <circle class="st36" cx="173.9" cy="44.5" r="8.3" />
                    <path class="st37" d="M179,37.9c0.3,0.9,0.4,1.9,0.4,2.9c0,5.6-4.6,10.2-10.2,10.2c-0.2,0-0.4,0-0.7,0c1.4,1.2,3.3,1.9,5.3,1.9
						c4.6,0,8.3-3.7,8.3-8.3C182.3,41.8,181,39.5,179,37.9z" />
				</g>
			</g>
		</g>
	</g>
</g>
</svg>
