<?xml version="1.0" encoding="utf-8"?><!-- Generator: Adobe Illustrator 28.0.0, SVG Export Plug-In . SVG Version: 6.00 Build 0)  -->
<svg version="1.1" id="Layer_1" xmlns="http://www.w3.org/2000/svg"
    xmlns:xlink="http://www.w3.org/1999/xlink" x="0px" y="0px" width="250px" height="250px"
    viewBox="0 0 250 250" style="enable-background:new 0 0 250 250;" xml:space="preserve">
<style type="text/css">
	.st0{fill:#F0F2F8;}
	.st1{opacity:0.57;}
	.st2{fill:#43596D;}
	.st3{opacity:0.2;fill:#242B52;enable-background:new    ;}
	.st4{clip-path:url(#SVGID_00000111171061052547807450000001182144402449558418_);}
	.st5{opacity:0.2;fill:#2F1D00;enable-background:new    ;}
	.st6{opacity:0.13;fill:#FFDE96;enable-background:new    ;}
	.st7{fill:#007874;}
	.st8{opacity:0.3;fill:#F1F3BE;enable-background:new    ;}
	.st9{opacity:0.71;fill:#005A56;enable-background:new    ;}
	.st10{opacity:0.1;fill:#242B52;enable-background:new    ;}
	.st11{fill:#00C48B;}
	.st12{opacity:0.5;}
	.st13{fill:#001230;}
	.st14{opacity:0.15;fill:#242B52;enable-background:new    ;}
	.st15{fill:#B4BDC5;}
	.st16{fill:#7D8191;}
	.st17{fill:#E6E7E8;}
	.st18{fill:#566575;}
	.st19{fill:#00123E;}
	.st20{fill:#242B52;}
	.st21{fill:#9FA8B6;}
	.st22{fill:#FFD900;}
	.st23{opacity:0.2;fill:#FFFFFF;enable-background:new    ;}
	.st24{fill:#303A66;}
	.st25{fill:#DCDDDF;}
	.st26{fill:#FFFFFF;}
	.st27{fill:#E3E3E7;}
	.st28{fill:#EBEBEB;}
	.st29{fill:#1C75BC;}
	.st30{opacity:0.7;fill:url(#SVGID_00000093893526196985631050000011529632494754764180_);enable-background:new    ;}
	.st31{opacity:0.7;fill:url(#SVGID_00000030446522267209170450000000038495948697253273_);enable-background:new    ;}
	.st32{opacity:0.7;fill:url(#SVGID_00000120519120021273934930000003166492106756063406_);enable-background:new    ;}
	.st33{opacity:0.6;fill:url(#SVGID_00000120551605746320796570000004207174168630024324_);enable-background:new    ;}
	.st34{opacity:0.6;fill:url(#SVGID_00000092421587565101868640000014439338055511912105_);enable-background:new    ;}
	.st35{opacity:0.15;fill:#839AD6;enable-background:new    ;}
	.st36{fill:#DCE6FF;}
	.st37{fill:#AFB9D3;}
</style>
    <g>
	<g id="Layer_2_00000111154199164637551020000013112361094757672578_">
		<g id="trees_front_00000036238345202939681300000015999668563754155174_">
			<path class="st0" d="M19.5,53.9c-35.7,52.9-23.8,99.8,56.8,153.4c62.8,41.7,162.1,52,173.1-69.5c4.1-45.6-8.1-108.1-105.2-122.3
				C91.9,7.8,33.4,33.3,19.5,53.9z" />
            <g>
				<g class="st1">
					<path class="st2"
                        d="M61.2,66.7c0,0.2,0.1,0.3,0.3,0.3s0.3-0.1,0.3-0.3s-0.1-0.3-0.3-0.3S61.2,66.5,61.2,66.7z" />
                    <path class="st2"
                        d="M112.4,56.8c0,0.2,0.2,0.4,0.4,0.4s0.4-0.2,0.4-0.4c0-0.2-0.2-0.4-0.4-0.4S112.4,56.5,112.4,56.8z" />
                    <circle class="st2" cx="77.7" cy="44.9" r="0.5" />
                    <path class="st2"
                        d="M107.2,48.2c0,0.2,0.1,0.3,0.3,0.3s0.3-0.1,0.3-0.3c0-0.2-0.1-0.3-0.3-0.3S107.2,48,107.2,48.2z" />
                    <path class="st2"
                        d="M36.3,57.3c0,0.2,0.1,0.3,0.3,0.3c0.2,0,0.3-0.1,0.3-0.3S36.8,57,36.6,57C36.4,57,36.3,57.1,36.3,57.3z" />
                    <path class="st2" d="M58.7,39c0,0.2,0.1,0.3,0.3,0.3c0.2,0,0.3-0.1,0.3-0.3c0-0.2-0.1-0.3-0.3-0.3C58.9,38.7,58.7,38.9,58.7,39
						z" />
                    <circle class="st2" cx="58.2" cy="49.4" r="0.6" />
                    <circle class="st2" cx="78.7" cy="31.3" r="0.6" />
                    <path class="st2"
                        d="M124.3,67.1c0,0.2,0.1,0.3,0.3,0.3s0.3-0.1,0.3-0.3s-0.1-0.3-0.3-0.3S124.3,66.9,124.3,67.1z" />
                    <path class="st2"
                        d="M45.3,71.9c0,0.2,0.1,0.3,0.3,0.3s0.3-0.1,0.3-0.3s-0.1-0.3-0.3-0.3S45.3,71.7,45.3,71.9z" />
                    <path class="st2"
                        d="M101.8,38.7c0,0.2,0.1,0.3,0.3,0.3s0.3-0.1,0.3-0.3c0-0.2-0.1-0.3-0.3-0.3S101.8,38.6,101.8,38.7z" />
                    <path class="st2" d="M128.4,30.7c0,0.2,0.1,0.3,0.3,0.3c0.2,0,0.3-0.1,0.3-0.3c0-0.2-0.1-0.3-0.3-0.3
						C128.5,30.4,128.4,30.5,128.4,30.7z" />
                    <circle class="st2" cx="92.1" cy="47.5" r="0.4" />
                    <path class="st2"
                        d="M56.6,84.4c0,0.2,0.1,0.3,0.3,0.3s0.3-0.1,0.3-0.3s-0.1-0.3-0.3-0.3S56.6,84.2,56.6,84.4z" />
                    <circle class="st2" cx="87.9" cy="57.6" r="0.2" />
                    <path class="st2"
                        d="M50.4,23.2c0,0.1,0.1,0.2,0.2,0.2s0.2-0.1,0.2-0.2c0-0.1-0.1-0.2-0.2-0.2S50.4,23.1,50.4,23.2z" />
                    <path class="st2" d="M77.5,90.7c0,0.1,0.1,0.2,0.2,0.2c0.1,0,0.2-0.1,0.2-0.2c0-0.1-0.1-0.2-0.2-0.2
						C77.6,90.6,77.5,90.6,77.5,90.7z" />
                    <path class="st2" d="M121.2,37.1c0,0.1,0.1,0.2,0.2,0.2c0.1,0,0.2-0.1,0.2-0.2s-0.1-0.2-0.2-0.2
						C121.3,37,121.2,37.1,121.2,37.1z" />
                    <path class="st2"
                        d="M42.9,39.2c0,0.2,0.1,0.3,0.3,0.3s0.3-0.1,0.3-0.3c0-0.2-0.1-0.3-0.3-0.3S42.9,39,42.9,39.2z" />
                    <circle class="st2" cx="181" cy="42.7" r="0.5" />
                    <path class="st2"
                        d="M151.4,46c0,0.2-0.1,0.3-0.3,0.3s-0.3-0.1-0.3-0.3c0-0.2,0.1-0.3,0.3-0.3S151.4,45.8,151.4,46z" />
                    <path class="st2" d="M222.3,55.1c0,0.2-0.1,0.3-0.3,0.3c-0.2,0-0.3-0.1-0.3-0.3s0.1-0.3,0.3-0.3
						C222.2,54.8,222.3,54.9,222.3,55.1z" />
                    <path class="st2" d="M199.9,36.8c0,0.2-0.1,0.3-0.3,0.3c-0.2,0-0.3-0.1-0.3-0.3c0-0.2,0.1-0.3,0.3-0.3
						C199.7,36.5,199.9,36.6,199.9,36.8z" />
                    <path class="st2" d="M185.6,62.1c0,0.2-0.1,0.3-0.3,0.3c-0.2,0-0.3-0.1-0.3-0.3s0.1-0.3,0.3-0.3
						C185.5,61.8,185.6,61.9,185.6,62.1z" />
                    <circle class="st2" cx="202" cy="59.8" r="0.6" />
                    <circle class="st2" cx="184.4" cy="77.6" r="0.6" />
                    <circle class="st2" cx="213.9" cy="44.1" r="0.6" />
                    <path class="st2" d="M156.8,36.5c0,0.2-0.1,0.3-0.3,0.3c-0.2,0-0.3-0.1-0.3-0.3c0-0.2,0.1-0.3,0.3-0.3
						C156.7,36.2,156.8,36.3,156.8,36.5z" />
                    <path class="st2" d="M222.6,26.4c0,0.2-0.1,0.3-0.3,0.3c-0.2,0-0.3-0.1-0.3-0.3c0-0.2,0.1-0.3,0.3-0.3
						C222.5,26.1,222.6,26.2,222.6,26.4z" />
                    <circle class="st2" cx="166.5" cy="45.2" r="0.4" />
                    <circle class="st2" cx="148.6" cy="56.2" r="0.4" />
                    <path class="st2"
                        d="M168.3,55.5c0,0.1-0.1,0.2-0.2,0.2s-0.2-0.1-0.2-0.2s0.1-0.2,0.2-0.2S168.3,55.4,168.3,55.5z" />
                    <path class="st2" d="M171.9,31c0,0.1-0.1,0.2-0.2,0.2c-0.1,0-0.2-0.1-0.2-0.2c0-0.1,0.1-0.2,0.2-0.2
						C171.9,30.9,171.9,30.9,171.9,31z" />
                    <path class="st2"
                        d="M133.4,55.4c0,0.1-0.1,0.2-0.2,0.2s-0.2-0.1-0.2-0.2s0.1-0.2,0.2-0.2S133.4,55.3,133.4,55.4z" />
                    <path class="st2"
                        d="M213.2,66.7c0,0.1-0.1,0.2-0.2,0.2s-0.2-0.1-0.2-0.2c0-0.1,0.1-0.2,0.2-0.2S213.2,66.6,213.2,66.7z" />
                    <path class="st2"
                        d="M136.4,39c0,0.1-0.1,0.2-0.2,0.2c-0.1,0-0.2-0.1-0.2-0.2s0.1-0.2,0.2-0.2C136.4,38.9,136.4,39,136.4,39z" />
                    <path class="st2" d="M199.7,48.5c0,0.2-0.1,0.3-0.3,0.3c-0.2,0-0.3-0.1-0.3-0.3c0-0.2,0.1-0.3,0.3-0.3
						C199.5,48.2,199.7,48.3,199.7,48.5z" />
				</g>
                <g>
					<g>
						<g>
							<g>
								<path class="st3"
                                    d="M217.9,166.5c0,1.8-4.4,3.2-9.8,3.2s-9.8-1.4-9.8-3.2s4.4-3.2,9.8-3.2S217.9,164.7,217.9,166.5z" />
                                <path class="st3" d="M213.5,166.6c0,1.2-3.3,2.2-7.4,2.2c-4.1,0-7.4-1-7.4-2.2s3.3-2.2,7.4-2.2
									C210.2,164.5,213.5,165.4,213.5,166.6z" />
							</g>
                            <g>
								<path class="st2" d="M205.2,153.4c0-1,0-1.7,0-2.9c-2.7-0.9-4.2-8.4-4.2-8.4c2,4.4,3.7,6.6,4.5,6.8c0.1-0.9,0.2-3.2,0.3-4.1
									c0-0.8,0.1-1.6,0.2-2.3c0.2-1-0.3-5.6,0.1-6c0,0,0.8,6.7,1.2,6c1.1-2.3,1.7-2.7,3-4.6c0.2-0.2-3,6.5-3,6.9
									c0.1,1.5,0.3,3.7,0.5,7c1-0.6,2.5-1.6,3.4-2.4c-0.6-2,1.3-5.9,1.3-5.9c-0.1,2.1-0.9,4.9-0.5,5.1c0.8-1,4.9-4,5.9-5.3
									c0,0-5.8,7.6-9.9,10.5c0.2,2.5,0.3,6.5,0.4,7.3c0.2,1.6,0.5,3.5,0.9,5c0.3,0.3-1.3,1.3-2.8,1c-1.3-0.2-2.3-0.4-2.1-1
									c0.1-0.7,0.3-1.4,0.3-2.1c0-1.5,0.1-6.8,0.2-7.9c-6.1-3-11.2-10.3-11.2-10.3C198,150,203.3,153.3,205.2,153.4L205.2,153.4z" />
                                <g>
									<defs>
										<path id="SVGID_1_" d="M205.2,153.4c0-1,0-1.7,0-2.9c-2.7-0.9-4.2-8.4-4.2-8.4c2,4.4,3.7,6.6,4.5,6.8
											c0.1-0.9,0.2-3.2,0.3-4.1c0-0.8,0.1-1.6,0.2-2.3c0.2-1-0.3-5.6,0.1-6c0,0,0.8,6.7,1.2,6c1.1-2.3,1.7-2.7,3-4.6
											c0.2-0.2-3,6.5-3,6.9c0.1,1.5,0.3,3.7,0.5,7c1-0.6,2.5-1.6,3.4-2.4c-0.6-2,1.3-5.9,1.3-5.9c-0.1,2.1-0.9,4.9-0.5,5.1
											c0.8-1,4.9-4,5.9-5.3c0,0-5.8,7.6-9.9,10.5c0.2,2.5,0.3,6.5,0.4,7.3c0.2,1.6,0.5,3.5,0.9,5c0.3,0.3-1.3,1.3-2.8,1
											c-1.3-0.2-2.3-0.4-2.1-1c0.1-0.7,0.3-1.4,0.3-2.1c0-1.5,0.1-6.8,0.2-7.9c-6.1-3-11.2-10.3-11.2-10.3
											C198,150,203.3,153.3,205.2,153.4L205.2,153.4z" />
									</defs>
                                    <clipPath
                                        id="SVGID_00000027572151179142654720000011934155493723781249_">
										<use xlink:href="#SVGID_1_" style="overflow:visible;" />
									</clipPath>
                                    <g style="clip-path:url(#SVGID_00000027572151179142654720000011934155493723781249_);">
										<path class="st5" d="M207.9,153.8c0,0-0.6,1.4-0.6,2.3s-0.2,6.4,0,7c0.2,0.5,0.6,5.6,0.6,5.6s0.3-6.2,0.4-7.5
											C208.3,160.2,207.9,153.8,207.9,153.8z" />
                                        <path class="st6" d="M205.8,168.3c0,0,0.5-3.2,0.3-5.1c-0.2-1.9-0.6-2.2-0.3-4.8s0.7-5.1,0.6-6.4
											c-0.1-1.3-0.1-4.7-0.1-4.7l-1,3.1c0,0,0.2-0.8-0.7-1.3c-0.9-0.5-1.3,0-1.3,0l2,4.2c0,0,0.3,1.6-0.2,1.4
											c-0.4-0.2-2.2-0.5-3-1c-0.8-0.5-2.7-0.3-1.6,0.1c1.1,0.4,3.9,6.2,3.9,6.7c0,0.5,0.3,4.8,0.2,6.3
											C204.5,168.6,205.8,168.3,205.8,168.3z" />
                                        <path class="st5" d="M210.9,153.9c0,0-1.8-0.9-2.1-1s-1.4,0.1-1.6,0.6s-1,2.4-1.6,2.2c-0.5-0.2-0.5-2-1.2-2.5
											c-0.7-0.5-2.9-0.7-3.7-0.2c-0.8,0.5-9.2-3.7-9.2-3.7s0.6-13.9,1-13.9c0.4,0,18.6,0.3,18.6,0.3l2.7,12.6L210.9,153.9
											L210.9,153.9z" />
									</g>
								</g>
							</g>
                            <g>
								<path class="st7" d="M185,141.5c-0.6,2.2-0.1,4.7,1.5,6.6c1.7,2.1,4.3,3.1,6.8,2.7c3.3,4,9.1,4.7,13.1,1.6
									c1-0.7,1.7-1.6,2.3-2.6c3.4,3.6,8.9,4.2,12.8,1.2c4.2-3.2,4.9-9.2,1.6-13.5c-1.3-1.7-3.1-2.9-5.1-3.5c0,0,0,0,0,0
									c3.1-3.3,3.4-8.6,0.5-12.4c-0.4-0.6-0.9-1.1-1.5-1.5c-0.2-1.7-1.6-3.2-3.4-3.5c-1-0.1-1.9,0.1-2.7,0.6
									c-2.7-2.6-7-2.9-10-0.5c-2.7,2.2-3.4,5.8-2.2,8.8c-1.6,0.6-2.9,1.9-3.5,3.6c-2.2-0.2-4.5,0.4-6.3,1.9
									c-1.3,1-2.2,2.3-2.9,3.7c-1-0.2-2,0-2.8,0.7c-1.5,1.2-1.7,3.3-0.5,4.8C183.4,141,184.2,141.4,185,141.5L185,141.5z" />
                                <path class="st8" d="M185,141.5c-0.8-0.1-1.6-0.5-2.2-1.2c-1.2-1.5-1-3.6,0.5-4.8c0.8-0.7,1.9-0.9,2.8-0.7
									c0.6-1.4,1.6-2.7,2.9-3.7c1.9-1.4,4.1-2,6.3-1.9c0.6-1.7,1.9-3,3.5-3.6c-1.3-3-0.5-6.6,2.2-8.8c3-2.4,7.3-2.2,10,0.5
									c0.8-0.5,1.7-0.7,2.7-0.6c0.3,0,0.6,0.1,0.9,0.2c-0.3,0.3-0.8,0.6-1.2,1c-1.3,1.1-1.6,1.6-1.6,1.6s-4.4-0.4-6.3,2.2
									c-4,5.5,0.6,10.3,0.6,10.3s-5.3-1.7-8.6-0.1c-2.8,1.4-5.4,3.9-6.4,6.5c-2.3,6.3,4.2,8.8,4.2,8.8s2.1,0,0.6,2.3
									c-0.7,1-0.8,2.1-0.6,3c-0.7-0.5-1.3-1.1-1.9-1.8c-2.5,0.3-5.1-0.6-6.8-2.7C184.9,146.2,184.4,143.8,185,141.5L185,141.5z
									 M195,142.4c0.9-0.7,1-2,0.3-2.9c-0.7-0.9-2-1-2.9-0.3c-0.9,0.7-1,2-0.3,2.9C192.8,143,194.1,143.1,195,142.4L195,142.4z
									 M195.9,138.1c0.6-0.5,0.6-1.3,0.2-1.8c-0.5-0.6-1.3-0.6-1.8-0.2s-0.6,1.3-0.2,1.8C194.5,138.5,195.3,138.5,195.9,138.1z
									 M210.5,123.4c0.6-0.5,0.6-1.3,0.2-1.8c-0.5-0.6-1.3-0.6-1.8-0.2c-0.6,0.5-0.6,1.3-0.2,1.8
									C209.1,123.8,209.9,123.9,210.5,123.4z M196.1,144.4c0.4-0.3,0.5-0.9,0.1-1.3c-0.3-0.4-0.9-0.5-1.3-0.1
									c-0.4,0.3-0.5,0.9-0.1,1.3C195.1,144.6,195.7,144.7,196.1,144.4L196.1,144.4z M209.9,126.4c0.4-0.3,0.5-0.9,0.1-1.3
									s-0.9-0.5-1.3-0.1c-0.4,0.3-0.5,0.9-0.1,1.3C208.9,126.6,209.5,126.7,209.9,126.4z" />
                                <path class="st9" d="M213.3,136.4c-2.7,1.1-3.4,1.3-3.1,0.5c0.6-2.1,1.1-2.6,4.2-4.1c5.1-2.5,3.8-10.2,3.3-12.1
									c0.3,0.3,0.6,0.7,0.9,1c2.9,3.8,2.6,9.1-0.5,12.4c0,0,0,0,0,0c1.9,0.6,3.7,1.7,5.1,3.5c3.3,4.3,2.5,10.3-1.6,13.5
									c-2.5,1.9-5.6,2.4-8.4,1.5c-7.8-8.8,5-1.1,7.7-4.7C226.1,141.3,219.1,134.1,213.3,136.4L213.3,136.4z M210.7,145.9
									c-0.1-1.7-0.3-0.2-2.7,1.2c-2.6,1.6-8.2-0.1-10.4,1.5c-0.8,0.6,2.5,5.3,1.9,5.7c2.4,0.3,4.8-0.3,6.8-1.9
									c1-0.7,1.7-1.6,2.3-2.6C208.7,149.9,210.8,147.7,210.7,145.9L210.7,145.9z M187.4,139.3c0.6-0.5,0.6-1.3,0.2-1.8
									s-1.3-0.6-1.8-0.2c-0.6,0.5-0.6,1.3-0.2,1.8C186,139.7,186.9,139.8,187.4,139.3z M187.2,141.6c0.4-0.3,0.4-0.8,0.1-1.2
									c-0.3-0.4-0.8-0.4-1.2-0.1c-0.4,0.3-0.4,0.8-0.1,1.2C186.3,141.9,186.8,141.9,187.2,141.6L187.2,141.6z M220.8,144.2
									c0.6-0.5,0.6-1.3,0.2-1.8s-1.3-0.6-1.8-0.2c-0.6,0.5-0.6,1.3-0.2,1.8C219.4,144.6,220.2,144.6,220.8,144.2z M215.7,131.2
									c0.9-0.7,1-2.1,0.3-3c-0.7-0.9-2.1-1-3-0.3c-0.9,0.7-1,2.1-0.3,3C213.5,131.8,214.8,131.9,215.7,131.2z M220.7,146.4
									c0.3-0.2,0.3-0.6,0.1-0.9c-0.2-0.3-0.6-0.3-0.9-0.1c-0.3,0.2-0.3,0.6-0.1,0.9C220.1,146.5,220.5,146.6,220.7,146.4z
									 M210.3,144.2c0.3-0.2,0.3-0.6,0.1-0.9c-0.2-0.3-0.6-0.3-0.9-0.1c-0.3,0.2-0.3,0.6-0.1,0.9
									C209.7,144.4,210.1,144.5,210.3,144.2z" />
							</g>
						</g>
                        <g>
							<g>
								<path class="st10" d="M67,161.6c0,2.6-8,4.7-17.9,4.7s-17.9-2.1-17.9-4.7c0-2.6,8-4.7,17.9-4.7S67,159.1,67,161.6L67,161.6z
									" />
                                <path class="st3"
                                    d="M59.1,161.9c0,1.7-6,3.1-13.4,3.1s-13.4-1.4-13.4-3.1s6-3.1,13.4-3.1S59.1,160.2,59.1,161.9z" />
							</g>
                            <path class="st2" d="M50,157.8c-0.4-0.2,0.5-2.7,0.5-4.6c0,0-2,3.5-1.4,5.3c-0.9,0.6-2.5,1.6-3.6,2.1
								c-0.2-2.9-0.4-4.9-0.6-6.2c0-0.3,3.4-6.4,3.2-6.2c-1.4,1.8-2,2.1-3.2,4.2c-0.4,0.7-1.3-5.3-1.3-5.3c-0.5,0.4,0.1,4.5-0.1,5.4
								c-0.1,0.6-0.2,1.3-0.2,2c-0.1,0.8-0.2,2.8-0.3,3.7c-0.9-0.2-2.6-2.2-4.8-6.1c0,0,1.7,6.7,4.5,7.5c0,0.3,0,0.6-0.1,0.9
								c-3.5-1.2-9.7-3.1-12.2-5.2c0,0,1.2,3,11.6,5.8l0.4,0.5c0,0,0,0.7,0.8,0.7c0.6,0,1.4-0.1,1.7,0.4c0.3,0.5,0.7-0.1,1.7-0.8
								c0.3-0.2,0.9-0.8,0.9-0.8c4-3.1,8.5-8,8.5-8C55.2,154.2,50.9,156.9,50,157.8L50,157.8z" />
                            <g>
								<path class="st11" d="M61.9,149.7c-1.2-1.2-3-1.4-4.5-0.7c-0.9-3.1-3.4-5.4-6.6-5.9c1-1.4,1.5-3.1,1.5-5
									c-0.1-4.5-3.8-8.1-8.2-7.9c-4.2,0.1-7.5,3.5-7.7,7.6c-0.9-0.3-1.9-0.5-2.9-0.5c-4.4,0.1-7.9,3.9-7.7,8.4
									c0,0.9,0.2,1.8,0.5,2.6c-0.7,1.2-1.1,2.7-1,4.2c0.1,4.5,3.8,8.1,8.2,7.9c1.4,0,2.7-0.4,3.8-1.1c0.1,0.1,0.1,0.1,0.2,0.2
									c2,1.9,5.2,1.7,7.1-0.3c0.4-0.4,0.7-0.8,0.9-1.3c1.3,0.9,2.9,1.4,4.6,1.3c1,0,1.9-0.3,2.8-0.6c0.1,0.6,0.4,1.1,0.9,1.5
									c1.2,1.1,3.2,1,4.3-0.2c0.8-0.9,1-2,0.7-3c1.2,0.1,2.5-0.4,3.4-1.4C63.7,153.9,63.6,151.3,61.9,149.7L61.9,149.7z" />
                                <path class="st8" d="M46.8,135.2c0,0.8-0.7,1.5-1.5,1.5c-0.8,0-1.5-0.7-1.5-1.5s0.7-1.5,1.5-1.5
									C46.1,133.7,46.8,134.4,46.8,135.2z" />
                                <path class="st8"
                                    d="M43.3,134.5c0,0.4-0.3,0.7-0.7,0.7s-0.7-0.3-0.7-0.7s0.3-0.7,0.7-0.7S43.3,134.1,43.3,134.5z" />
                                <path class="st8"
                                    d="M59.6,150.2c0,0.4-0.3,0.7-0.7,0.7s-0.7-0.3-0.7-0.7s0.3-0.7,0.7-0.7S59.6,149.8,59.6,150.2z" />
                                <g class="st12">
									<path class="st9" d="M33.5,160.6c1.4,0,2.7-0.4,3.8-1.1c0.1,0.1,0.1,0.1,0.2,0.2c2,1.9,5.2,1.7,7.1-0.3
										c0.4-0.4,0.7-0.8,0.9-1.3c1.3,0.9,2.9,1.4,4.6,1.3c1,0,1.9-0.3,2.8-0.6c0.1,0.6,0.4,1.1,0.9,1.5c1.2,1.1,3.2,1,4.3-0.2
										c0.8-0.9,1-2,0.7-3c1.2,0.1,2.5-0.4,3.4-1.4c1.4-1.5,1.5-3.6,0.5-5.2c-0.5,1.3-1.3,2.8-2.1,3.5c-1.4,1.2-3-1.5-4.4-2.9
										c-1.4-1.4-2.1,0.1-4.1,1.1c-2,1-4-0.8-7-1.8c-3-1-8.3,3.3-10,3.9c-1.7,0.6-4.3,2.1-7.4,0.7c-1-0.5-1.7-1.1-2.3-1.7
										C25.8,157.5,29.3,160.7,33.5,160.6L33.5,160.6z" />
                                    <path class="st9" d="M51.1,149.9c0,0.9-0.8,1.7-1.7,1.7c-0.9,0-1.7-0.8-1.7-1.7c0-0.9,0.8-1.7,1.7-1.7
										C50.4,148.2,51.1,148.9,51.1,149.9z" />
                                    <path class="st9"
                                        d="M31.8,147.9c0,0.8-0.6,1.4-1.4,1.4s-1.4-0.6-1.4-1.4s0.6-1.4,1.4-1.4S31.8,147.1,31.8,147.9z" />
                                    <path class="st9"
                                        d="M53.2,149.4c0,0.4-0.3,0.8-0.8,0.8s-0.8-0.3-0.8-0.8c0-0.4,0.3-0.8,0.8-0.8S53.2,148.9,53.2,149.4z" />
                                    <path class="st9" d="M28.3,147.8c0,0.4-0.4,0.8-0.8,0.8c-0.4,0-0.8-0.3-0.8-0.8c0-0.4,0.4-0.8,0.8-0.8
										C27.9,147,28.3,147.4,28.3,147.8z" />
                                    <path class="st9"
                                        d="M32.6,145.6c0,0.4-0.4,0.8-0.8,0.8s-0.8-0.4-0.8-0.8s0.4-0.8,0.8-0.8S32.6,145.2,32.6,145.6z" />
								</g>
                                <path class="st8" d="M44.1,130.2c-4.2,0.1-7.5,3.5-7.7,7.6c-0.9-0.3-1.9-0.5-2.9-0.5c-3.1,0.1-5.7,1.9-6.9,4.6
									c3.4-2.6,8.8-1.8,11.4-1.3c0.2,0,0.4,0,0.5-0.2c0.1-0.2,0.1-0.4-0.1-0.6l-0.8-0.9c-0.3-0.3-0.3-0.7-0.1-1
									c1.2-1.9,5.5-7.9,13.3-4.2C49.4,131.5,46.9,130.2,44.1,130.2L44.1,130.2z" />
                                <path class="st8" d="M50.9,143.1c-4.4,0.5-7.5,2.9-7.5,2.9s5.1-1.5,9.6-1c0.6,0.1,1.7,0.3,2.7,0.7
									C54.4,144.4,52.8,143.4,50.9,143.1C50.9,143.1,50.9,143.1,50.9,143.1z" />
                                <path class="st11"
                                    d="M42.2,154.3c0,0.8-0.7,1.5-1.5,1.5s-1.5-0.7-1.5-1.5s0.7-1.5,1.5-1.5S42.2,153.5,42.2,154.3z" />
                                <path class="st11"
                                    d="M42.6,151.8c0,0.4-0.3,0.7-0.7,0.7s-0.7-0.3-0.7-0.7s0.3-0.7,0.7-0.7S42.6,151.4,42.6,151.8z" />
							</g>
						</g>
                        <g>
							<polygon class="st13"
                                points="155.9,69.4 171.7,73.7 210.3,119.3 194.5,115.1 							" />
                            <polygon class="st14"
                                points="153.7,152.2 129.3,158.7 129.3,195.1 161.5,195.1 237.6,174.7 							" />
                            <g>
								<g>
									<polygon class="st15"
                                        points="49.6,155.8 129.3,177.2 129.3,195.1 49.6,173.7 									" />
                                    <polygon class="st16"
                                        points="194.5,159.7 194.5,177.6 129.3,195.1 129.3,177.2 									" />
								</g>
                                <polygon class="st17"
                                    points="49.6,105.7 129.3,127.1 129.3,192.1 49.6,170.7 								" />
                                <polygon class="st15"
                                    points="194.5,109.6 194.5,174.6 129.3,192.1 129.3,127.1 161.9,71.1 								" />
							</g>
                            <g>
								<g>
									<polygon class="st18"
                                        points="118.2,189.1 98.7,183.9 98.7,144.4 118.2,149.6 									" />
                                    <polygon class="st15"
                                        points="98.7,144.4 98.7,183.9 100.9,183.3 100.9,145 									" />
                                    <polygon class="st17"
                                        points="118.2,189.1 98.7,183.9 100.9,183.3 118.2,187.9 									" />
								</g>
                                <polygon class="st19"
                                    points="116.5,185.8 102.6,182.1 102.6,146.4 116.5,150.1 								" />
                                <polygon class="st20"
                                    points="115.9,183.6 105.5,180.8 105.5,154.7 115.9,157.5 								" />
                                <polygon class="st19"
                                    points="116.2,173.9 102.9,170.3 102.9,169.1 116.2,172.6 								" />
                                <polygon class="st19"
                                    points="116.2,163.3 102.9,159.7 102.9,158.4 116.2,162 								" />
                                <path class="st21"
                                    d="M114.8,170.1c0,0.6-0.4,0.9-0.8,0.8s-0.8-0.7-0.8-1.2s0.4-0.9,0.8-0.8S114.8,169.5,114.8,170.1z" />
							</g>
                            <g>
								<g>
									<g>
										<polygon class="st18"
                                            points="88.9,181.2 71.6,176.6 71.6,135.3 88.9,140 										" />
                                        <polygon class="st15"
                                            points="71.6,135.3 71.6,176.6 73.6,176 73.6,135.9 										" />
                                        <polygon class="st17"
                                            points="88.9,181.2 71.6,176.6 73.6,176 88.9,180.1 										" />
									</g>
                                    <polygon class="st22"
                                        points="87.4,178.3 75.1,175 75.1,137.1 87.4,140.4 									" />
								</g>
                                <g>
									<g>
										<polygon class="st18"
                                            points="71.6,176.6 54.2,172 54.2,130.7 71.6,135.4 										" />
                                        <polygon class="st15"
                                            points="54.2,130.7 54.2,172 56.3,171.4 56.3,131.3 										" />
                                        <polygon class="st17"
                                            points="71.6,176.6 54.2,172 56.3,171.4 71.6,175.5 										" />
									</g>
                                    <polygon class="st22"
                                        points="70.1,173.7 57.7,170.4 57.7,132.5 70.1,135.8 									" />
								</g>
							</g>
                            <g>
								<g>
									<g>
										<polygon class="st18"
                                            points="149.4,186.6 165.2,182.4 165.2,145 149.4,149.2 										" />
                                        <polygon class="st16"
                                            points="165.2,145 165.2,182.4 163.3,181.9 163.3,145.4 										" />
                                        <polygon class="st17"
                                            points="149.4,186.6 165.2,182.4 163.3,181.9 149.4,185.6 										" />
									</g>
                                    <polygon class="st22"
                                        points="150.7,184 162,180.9 162,146.6 150.7,149.6 									" />
								</g>
                                <g>
									<g>
										<polygon class="st18"
                                            points="165.2,182.4 180.9,178.2 180.9,140.7 165.2,145 										" />
                                        <polygon class="st16"
                                            points="180.9,140.7 180.9,178.2 179.1,177.7 179.1,141.2 										" />
                                        <polygon class="st17"
                                            points="165.2,182.4 180.9,178.2 179.1,177.7 165.2,181.4 										" />
									</g>
                                    <polygon class="st22"
                                        points="166.5,179.7 177.7,176.7 177.7,142.4 166.5,145.4 									" />
								</g>
							</g>
                            <g>
								<path class="st16" d="M157.8,106.9c-1.5,5.6,0.6,11,4.7,12.1c4.1,1.1,8.6-2.5,10.1-8.1c1.5-5.6-0.6-11-4.7-12.1
									C163.8,97.7,159.3,101.3,157.8,106.9L157.8,106.9z" />
                                <path class="st22" d="M157.8,106.9c1.2-4.6,4.5-7.9,8-8.3c2.8,2,4,6.5,2.8,11.1c-1.2,4.6-4.5,7.9-8,8.3
									C157.8,116,156.5,111.5,157.8,106.9z" />
                                <polygon class="st18"
                                    points="162.4,118.1 163.8,117.7 163.8,99.7 162.4,100.1 								" />
							</g>
                            <polygon class="st23"
                                points="49.6,105.7 129.3,127.1 49.6,170.7 							" />
                            <g>
								<polygon class="st24"
                                    points="34.5,107.7 133.1,134.1 133.1,139.9 34.5,113.5 								" />
                                <polygon class="st20"
                                    points="171.7,67.8 133.1,134.1 133.1,140 171.7,73.7 210.3,119.3 210.3,113.4 								" />
                                <polygon class="st2"
                                    points="73.1,41.4 171.7,67.8 133.1,134.1 34.5,107.7 								" />
							</g>
                            <g>
								<polygon class="st25"
                                    points="92.1,142.1 115,148.3 115,150.5 92.1,144.4 								" />
                                <polygon class="st26"
                                    points="92.1,142.1 115,148.3 122,146.4 99.1,140.2 								" />
                                <polygon class="st21"
                                    points="122,146.4 122,148.6 115,150.5 115,148.3 								" />
							</g>
                            <polygon class="st10"
                                points="194.5,109.6 194.5,174.6 129.3,192.1 							" />
                            <g>
								<polygon class="st20"
                                    points="142.4,93.6 66.5,73.3 51.7,98.7 127.6,119 								" />
                                <polygon class="st27"
                                    points="141.8,92.2 65.9,72 51.1,97.4 127,117.6 								" />
                                <path class="st14" d="M66.2,100.7L52.4,97l14.1-23.8l13.7,3.7L66.2,100.7z M95.3,80.8l-13.7-3.7L67.4,101l13.7,3.7
									L95.3,80.8z M110.3,84.8l-13.7-3.7L82.4,105l13.7,3.7L110.3,84.8L110.3,84.8z M125.3,88.9l-13.7-3.7L97.4,109l13.7,3.7
									L125.3,88.9z M140.3,92.9l-13.7-3.7L112.4,113l13.7,3.7L140.3,92.9L140.3,92.9z" />
                                <g>
									<polygon class="st28"
                                        points="66.3,72.6 52.1,96.4 65.9,100.1 80,76.2 									" />
                                    <path class="st29" d="M54.6,93.5l-1.3,2.1l0.1,0.4l2.3,0.6l0.5-0.2l1.3-2.1L57.4,94l-2.3-0.6L54.6,93.5z M56.3,90.7
										L55,92.8l0.1,0.4l2.3,0.6l0.5-0.2l1.3-2.1l-0.1-0.4l-2.3-0.6L56.3,90.7z M58,87.9L56.7,90l0.1,0.4l2.3,0.6l0.5-0.2l1.3-2.1
										l-0.1-0.4l-2.3-0.6C58.4,87.7,58,87.9,58,87.9z M59.7,85l-1.3,2.1l0.1,0.4l2.3,0.6l0.5-0.2l1.3-2.1l-0.1-0.4l-2.3-0.6
										L59.7,85z M61.3,82.2l-1.3,2.1l0.1,0.4l2.3,0.6l0.5-0.2l1.3-2.1l-0.1-0.4L61.8,82L61.3,82.2z M63,79.3l-1.3,2.1l0.1,0.4
										l2.3,0.6l0.5-0.2l1.3-2.1l-0.1-0.4l-2.3-0.6L63,79.3z M64.7,76.5l-1.3,2.1l0.1,0.4l2.3,0.6l0.5-0.2l1.3-2.1l-0.1-0.4
										l-2.3-0.6L64.7,76.5z M66.4,73.6l-1.3,2.1l0.1,0.4l2.3,0.6l0.5-0.2l1.3-2.1L69.2,74l-2.3-0.6L66.4,73.6z M57.7,94.4
										l-1.3,2.1l0.1,0.4l2.3,0.6l0.5-0.2l1.3-2.1l-0.1-0.4l-2.3-0.6L57.7,94.4z M59.4,91.5l-1.3,2.1l0.1,0.4l2.3,0.6l0.5-0.2
										l1.3-2.1L62.2,92l-2.3-0.6L59.4,91.5z M61.1,88.7l-1.3,2.1l0.1,0.4l2.3,0.6l0.5-0.2l1.3-2.1l-0.1-0.4l-2.3-0.6
										C61.6,88.5,61.1,88.7,61.1,88.7z M62.8,85.8L61.5,88l0.1,0.4l2.3,0.6l0.5-0.2l1.3-2.1l-0.1-0.4l-2.3-0.6L62.8,85.8z
										 M64.5,83l-1.3,2.1l0.1,0.4l2.3,0.6l0.5-0.2l1.3-2.1l-0.1-0.4L65,82.8L64.5,83z M66.2,80.1l-1.3,2.1l0.1,0.4l2.3,0.6
										l0.5-0.2l1.3-2.1L69,80.6l-2.3-0.6L66.2,80.1z M67.8,77.3l-1.3,2.1l0.1,0.4l2.3,0.6l0.5-0.2l1.3-2.1l-0.1-0.4l-2.3-0.6
										L67.8,77.3z M69.5,74.5l-1.3,2.1l0.1,0.4l2.3,0.6l0.5-0.2l1.3-2.1l-0.1-0.4L70,74.3L69.5,74.5z M60.9,95.2l-1.3,2.1
										l0.1,0.4l2.3,0.6l0.5-0.2l1.3-2.1l-0.1-0.4L61.3,95L60.9,95.2z M62.6,92.4l-1.3,2.1l0.1,0.4l2.3,0.6l0.5-0.2l1.3-2.1
										l-0.1-0.4L63,92.2L62.6,92.4z M64.2,89.5L63,91.6l0.1,0.4l2.3,0.6l0.5-0.2l1.3-2.1l-0.1-0.4l-2.3-0.6L64.2,89.5z
										 M65.9,86.7l-1.3,2.1l0.1,0.4l2.3,0.6l0.5-0.2l1.3-2.1l-0.1-0.4l-2.3-0.6C66.4,86.5,65.9,86.7,65.9,86.7z M67.6,83.8
										l-1.3,2.1l0.1,0.4l2.3,0.6l0.5-0.2l1.3-2.1l-0.1-0.4l-2.3-0.6L67.6,83.8z M69.3,81L68,83.1l0.1,0.4l2.3,0.6l0.5-0.2
										l1.3-2.1l-0.1-0.4l-2.3-0.6L69.3,81z M71,78.1l-1.3,2.1l0.1,0.4l2.3,0.6l0.5-0.2l1.3-2.1l-0.1-0.4l-2.3-0.6L71,78.1z
										 M72.7,75.3l-1.3,2.1l0.1,0.4l2.3,0.6l0.5-0.2l1.3-2.1l-0.1-0.4l-2.3-0.6C73.1,75.1,72.7,75.3,72.7,75.3z M64,96.1
										l-1.3,2.1l0.1,0.4l2.3,0.6l0.5-0.2l1.3-2.1l-0.1-0.4l-2.3-0.6L64,96.1z M65.7,93.2l-1.3,2.1l0.1,0.4l2.3,0.6l0.5-0.2
										l1.3-2.1l-0.1-0.4L66.2,93L65.7,93.2z M67.4,90.4l-1.3,2.1l0.1,0.4l2.3,0.6l0.5-0.2l1.3-2.1l-0.1-0.4l-2.3-0.6L67.4,90.4z
										 M69.1,87.5l-1.3,2.1L68,90l2.3,0.6l0.5-0.2l1.3-2.1l-0.1-0.4l-2.3-0.6C69.5,87.3,69.1,87.5,69.1,87.5z M70.7,84.7
										l-1.3,2.1l0.1,0.4l2.3,0.6l0.5-0.2l1.3-2.1l-0.1-0.4l-2.3-0.6L70.7,84.7z M72.4,81.8l-1.3,2.1l0.1,0.4l2.3,0.6l0.5-0.2
										l1.3-2.1l-0.1-0.4l-2.3-0.6L72.4,81.8z M74.1,79l-1.3,2.1l0.1,0.4l2.3,0.6l0.5-0.2l1.3-2.1l-0.1-0.4l-2.3-0.6
										C74.6,78.8,74.1,79,74.1,79z M75.8,76.1l-1.3,2.1l0.1,0.4l2.3,0.6l0.5-0.2l1.3-2.1l-0.1-0.4l-2.3-0.6L75.8,76.1z" />
								</g>
                                <g>
									<polygon class="st28"
                                        points="81.3,76.6 67.1,100.4 80.9,104.1 95,80.2 									" />
                                    <path class="st29" d="M69.6,97.6l-1.3,2.1l0.1,0.4l2.3,0.6l0.5-0.2l1.3-2.1L72.4,98l-2.3-0.6L69.6,97.6z M71.3,94.7
										L70,96.8l0.1,0.4l2.3,0.6l0.5-0.2l1.3-2.1l-0.1-0.4l-2.3-0.6L71.3,94.7z M73,91.9L71.7,94l0.1,0.4l2.3,0.6l0.5-0.2l1.3-2.1
										l-0.1-0.4l-2.3-0.6C73.4,91.7,73,91.9,73,91.9z M74.7,89l-1.3,2.1l0.1,0.4l2.3,0.6l0.5-0.2l1.3-2.1l-0.1-0.4l-2.3-0.6
										C75.1,88.8,74.7,89,74.7,89z M76.3,86.2l-1.3,2.1l0.1,0.4l2.3,0.6l0.5-0.2l1.3-2.1l-0.1-0.4L76.8,86L76.3,86.2z M78,83.3
										l-1.3,2.1l0.1,0.4l2.3,0.6l0.5-0.2l1.3-2.1l-0.1-0.4l-2.3-0.6L78,83.3z M79.7,80.5l-1.3,2.1l0.1,0.4l2.3,0.6l0.5-0.2
										l1.3-2.1l-0.1-0.4l-2.3-0.6L79.7,80.5z M81.4,77.6l-1.3,2.1l0.1,0.4l2.3,0.6l0.5-0.2l1.3-2.1l-0.1-0.4l-2.3-0.6L81.4,77.6z
										 M72.7,98.4l-1.3,2.1l0.1,0.4l2.3,0.6l0.5-0.2l1.3-2.1l-0.1-0.4l-2.3-0.6L72.7,98.4z M74.4,95.5l-1.3,2.1l0.1,0.4l2.3,0.6
										l0.5-0.2l1.3-2.1L77.2,96l-2.3-0.6L74.4,95.5z M76.1,92.7l-1.3,2.1l0.1,0.4l2.3,0.6l0.5-0.2l1.3-2.1l-0.1-0.4l-2.3-0.6
										L76.1,92.7z M77.8,89.8L76.5,92l0.1,0.4L79,93l0.5-0.2l1.3-2.1l-0.1-0.4l-2.3-0.6L77.8,89.8z M79.5,87l-1.3,2.1l0.1,0.4
										l2.3,0.6l0.5-0.2l1.3-2.1l-0.1-0.4L80,86.8C80,86.8,79.5,87,79.5,87z M81.2,84.2l-1.3,2.1l0.1,0.4l2.3,0.6l0.5-0.2l1.3-2.1
										L84,84.6L81.6,84L81.2,84.2z M82.8,81.3l-1.3,2.1l0.1,0.4l2.3,0.6l0.5-0.2l1.3-2.1l-0.1-0.4l-2.3-0.6L82.8,81.3z
										 M84.5,78.5l-1.3,2.1l0.1,0.4l2.3,0.6l0.5-0.2l1.3-2.1l-0.1-0.4L85,78.3L84.5,78.5z M75.9,99.2l-1.3,2.1l0.1,0.4l2.3,0.6
										l0.5-0.2l1.3-2.1l-0.1-0.4L76.3,99L75.9,99.2z M77.6,96.4l-1.3,2.1l0.1,0.4l2.3,0.6l0.5-0.2l1.3-2.1l-0.1-0.4L78,96.2
										L77.6,96.4z M79.2,93.5L78,95.6l0.1,0.4l2.3,0.6l0.5-0.2l1.3-2.1L82.1,94l-2.3-0.6L79.2,93.5z M80.9,90.7l-1.3,2.1l0.1,0.4
										l2.3,0.6l0.5-0.2l1.3-2.1l-0.1-0.4l-2.3-0.6L80.9,90.7z M82.6,87.8L81.4,90l0.1,0.4l2.3,0.6l0.5-0.2l1.3-2.1l-0.1-0.4
										l-2.3-0.6C83.1,87.6,82.6,87.8,82.6,87.8z M84.3,85L83,87.1l0.1,0.4l2.3,0.6l0.5-0.2l1.3-2.1l-0.1-0.4l-2.3-0.6L84.3,85z
										 M86,82.1l-1.3,2.1l0.1,0.4l2.3,0.6l0.5-0.2l1.3-2.1l-0.1-0.4l-2.3-0.6L86,82.1z M87.7,79.3l-1.3,2.1l0.1,0.4l2.3,0.6
										l0.5-0.2l1.3-2.1l-0.1-0.4l-2.3-0.6L87.7,79.3z M79,100.1l-1.3,2.1l0.1,0.4l2.3,0.6l0.5-0.2l1.3-2.1l-0.1-0.4l-2.3-0.6
										L79,100.1z M80.7,97.2l-1.3,2.1l0.1,0.4l2.3,0.6l0.5-0.2l1.3-2.1l-0.1-0.4L81.2,97L80.7,97.2z M82.4,94.4l-1.3,2.1l0.1,0.4
										l2.3,0.6l0.5-0.2l1.3-2.1l-0.1-0.4l-2.3-0.6L82.4,94.4z M84.1,91.5l-1.3,2.1L83,94l2.3,0.6l0.5-0.2l1.3-2.1l-0.1-0.4
										l-2.3-0.6L84.1,91.5z M85.7,88.7l-1.3,2.1l0.1,0.4l2.3,0.6l0.5-0.2l1.3-2.1l-0.1-0.4l-2.3-0.6
										C86.2,88.5,85.7,88.7,85.7,88.7z M87.4,85.8l-1.3,2.1l0.1,0.4l2.3,0.6l0.5-0.2l1.3-2.1l-0.1-0.4l-2.3-0.6L87.4,85.8z
										 M89.1,83l-1.3,2.1l0.1,0.4l2.3,0.6l0.5-0.2l1.3-2.1l-0.1-0.4l-2.3-0.6L89.1,83z M90.8,80.1l-1.3,2.1l0.1,0.4l2.3,0.6
										l0.5-0.2l1.3-2.1l-0.1-0.4l-2.3-0.6L90.8,80.1z" />
								</g>
                                <g>
									<polygon class="st28"
                                        points="96.3,80.6 82.1,104.4 95.9,108.1 110,84.2 									" />
                                    <path class="st29" d="M84.6,101.6l-1.3,2.1l0.1,0.4l2.3,0.6l0.5-0.2l1.3-2.1l-0.1-0.4l-2.3-0.6L84.6,101.6z M86.3,98.7
										l-1.3,2.1l0.1,0.4l2.3,0.6l0.5-0.2l1.3-2.1l-0.1-0.4l-2.3-0.6L86.3,98.7z M88,95.9L86.7,98l0.1,0.4l2.3,0.6l0.5-0.2
										l1.3-2.1l-0.1-0.4l-2.3-0.6L88,95.9z M89.7,93l-1.3,2.1l0.1,0.4l2.3,0.6l0.5-0.2l1.3-2.1l-0.1-0.4l-2.3-0.6L89.7,93z
										 M91.3,90.2l-1.3,2.1l0.1,0.4l2.3,0.6l0.5-0.2l1.3-2.1l-0.1-0.4L91.8,90L91.3,90.2z M93,87.3l-1.3,2.1l0.1,0.4l2.3,0.6
										l0.5-0.2l1.3-2.1l-0.1-0.4l-2.3-0.6C93.5,87.1,93,87.3,93,87.3z M94.7,84.5l-1.3,2.1l0.1,0.4l2.3,0.6l0.5-0.2l1.3-2.1
										l-0.1-0.4l-2.3-0.6L94.7,84.5z M96.4,81.6l-1.3,2.1l0.1,0.4l2.3,0.6l0.5-0.2l1.3-2.1l-0.1-0.4l-2.3-0.6L96.4,81.6z
										 M87.7,102.4l-1.3,2.1l0.1,0.4l2.3,0.6l0.5-0.2l1.3-2.1l-0.1-0.4l-2.3-0.6L87.7,102.4z M89.4,99.5l-1.3,2.1l0.1,0.4
										l2.3,0.6l0.5-0.2l1.3-2.1l-0.1-0.4l-2.3-0.6L89.4,99.5z M91.1,96.7l-1.3,2.1l0.1,0.4l2.3,0.6l0.5-0.2l1.3-2.1l-0.1-0.4
										l-2.3-0.6L91.1,96.7z M92.8,93.9L91.5,96l0.1,0.4L94,97l0.5-0.2l1.3-2.1l-0.1-0.4l-2.3-0.6L92.8,93.9z M94.5,91l-1.3,2.1
										l0.1,0.4l2.3,0.6l0.5-0.2l1.3-2.1l-0.1-0.4L95,90.8L94.5,91z M96.2,88.2l-1.3,2.1l0.1,0.4l2.3,0.6l0.5-0.2l1.3-2.1L99,88.6
										L96.6,88C96.6,88,96.2,88.2,96.2,88.2z M97.8,85.3l-1.3,2.1l0.1,0.4l2.3,0.6l0.5-0.2l1.3-2.1l-0.1-0.4l-2.3-0.6L97.8,85.3z
										 M99.5,82.5l-1.3,2.1l0.1,0.4l2.3,0.6l0.5-0.2l1.3-2.1l-0.1-0.4l-2.3-0.6L99.5,82.5z M90.9,103.2l-1.3,2.1l0.1,0.4l2.3,0.6
										l0.5-0.2l1.3-2.1l-0.1-0.4l-2.3-0.6L90.9,103.2z M92.6,100.4l-1.3,2.1l0.1,0.4l2.3,0.6l0.5-0.2l1.3-2.1l-0.1-0.4l-2.3-0.6
										L92.6,100.4z M94.2,97.5L93,99.7l0.1,0.4l2.3,0.6l0.5-0.2l1.3-2.1L97.1,98l-2.3-0.6L94.2,97.5z M95.9,94.7l-1.3,2.1
										l0.1,0.4l2.3,0.6l0.5-0.2l1.3-2.1l-0.1-0.4l-2.3-0.6L95.9,94.7z M97.6,91.8L96.4,94l0.1,0.4l2.3,0.6l0.5-0.2l1.3-2.1
										l-0.1-0.4l-2.3-0.6L97.6,91.8z M99.3,89L98,91.1l0.1,0.4l2.3,0.6l0.5-0.2l1.3-2.1l-0.1-0.4l-2.3-0.6
										C99.8,88.8,99.3,89,99.3,89z M101,86.1l-1.3,2.1l0.1,0.4l2.3,0.6l0.5-0.2l1.3-2.1l-0.1-0.4l-2.3-0.6L101,86.1z M102.7,83.3
										l-1.3,2.1l0.1,0.4l2.3,0.6l0.5-0.2l1.3-2.1l-0.1-0.4l-2.3-0.6L102.7,83.3z M94,104.1l-1.3,2.1l0.1,0.4l2.3,0.6l0.5-0.2
										l1.3-2.1l-0.1-0.4l-2.3-0.6L94,104.1z M95.7,101.2l-1.3,2.1l0.1,0.4l2.3,0.6l0.5-0.2l1.3-2.1l-0.1-0.4l-2.3-0.6L95.7,101.2
										z M97.4,98.4l-1.3,2.1l0.1,0.4l2.3,0.6l0.5-0.2l1.3-2.1l-0.1-0.4l-2.3-0.6L97.4,98.4z M99.1,95.5l-1.3,2.1L98,98l2.3,0.6
										l0.5-0.2l1.3-2.1l-0.1-0.4l-2.3-0.6L99.1,95.5z M100.7,92.7l-1.3,2.1l0.1,0.4l2.3,0.6l0.5-0.2l1.3-2.1l-0.1-0.4l-2.3-0.6
										L100.7,92.7z M102.4,89.8l-1.3,2.1l0.1,0.4l2.3,0.6l0.5-0.2l1.3-2.1l-0.1-0.4l-2.3-0.6L102.4,89.8z M104.1,87l-1.3,2.1
										l0.1,0.4l2.3,0.6l0.5-0.2l1.3-2.1l-0.1-0.4l-2.3-0.6C104.6,86.8,104.1,87,104.1,87z M105.8,84.1l-1.3,2.1l0.1,0.4l2.3,0.6
										l0.5-0.2l1.3-2.1l-0.1-0.4l-2.3-0.6L105.8,84.1z" />
								</g>
                                <g>
									<polygon class="st28"
                                        points="111.3,84.6 97.1,108.4 110.9,112.1 125,88.3 									" />
                                    <path class="st29" d="M99.6,105.6l-1.3,2.1l0.1,0.4l2.3,0.6l0.5-0.2l1.3-2.1l-0.1-0.4l-2.3-0.6L99.6,105.6z M101.3,102.7
										l-1.3,2.1l0.1,0.4l2.3,0.6l0.5-0.2l1.3-2.1l-0.1-0.4l-2.3-0.6L101.3,102.7z M103,99.9l-1.3,2.1l0.1,0.4l2.3,0.6l0.5-0.2
										l1.3-2.1l-0.1-0.4l-2.3-0.6L103,99.9z M104.7,97l-1.3,2.1l0.1,0.4l2.3,0.6l0.5-0.2l1.3-2.1l-0.1-0.4l-2.3-0.6L104.7,97z
										 M106.3,94.2l-1.3,2.1l0.1,0.4l2.3,0.6l0.5-0.2l1.3-2.1l-0.1-0.4l-2.3-0.6L106.3,94.2z M108,91.3l-1.3,2.1l0.1,0.4l2.3,0.6
										l0.5-0.2l1.3-2.1l-0.1-0.4l-2.3-0.6L108,91.3z M109.7,88.5l-1.3,2.1l0.1,0.4l2.3,0.6l0.5-0.2l1.3-2.1l-0.1-0.4l-2.3-0.6
										C110.2,88.3,109.7,88.5,109.7,88.5z M111.4,85.6l-1.3,2.1l0.1,0.4l2.3,0.6l0.5-0.2l1.3-2.1l-0.1-0.4l-2.3-0.6L111.4,85.6z
										 M102.7,106.4l-1.3,2.1l0.1,0.4l2.3,0.6l0.5-0.2l1.3-2.1l-0.1-0.4l-2.3-0.6L102.7,106.4z M104.4,103.6l-1.3,2.1l0.1,0.4
										l2.3,0.6l0.5-0.2l1.3-2.1l-0.1-0.4l-2.3-0.6L104.4,103.6z M106.1,100.7l-1.3,2.1l0.1,0.4l2.3,0.6l0.5-0.2l1.3-2.1l-0.1-0.4
										l-2.3-0.6L106.1,100.7z M107.8,97.9l-1.3,2.1l0.1,0.4l2.3,0.6l0.5-0.2l1.3-2.1l-0.1-0.4l-2.3-0.6L107.8,97.9z M109.5,95
										l-1.3,2.1l0.1,0.4l2.3,0.6l0.5-0.2l1.3-2.1l-0.1-0.4l-2.3-0.6L109.5,95z M111.2,92.2l-1.3,2.1l0.1,0.4l2.3,0.6l0.5-0.2
										l1.3-2.1l-0.1-0.4l-2.3-0.6L111.2,92.2z M112.8,89.3l-1.3,2.1l0.1,0.4l2.3,0.6l0.5-0.2l1.3-2.1l-0.1-0.4l-2.3-0.6
										L112.8,89.3z M114.5,86.5l-1.3,2.1l0.1,0.4l2.3,0.6l0.5-0.2l1.3-2.1l-0.1-0.4l-2.3-0.6C115,86.3,114.5,86.5,114.5,86.5z
										 M105.9,107.2l-1.3,2.1l0.1,0.4l2.3,0.6l0.5-0.2l1.3-2.1l-0.1-0.4l-2.3-0.6L105.9,107.2z M107.6,104.4l-1.3,2.1l0.1,0.4
										l2.3,0.6l0.5-0.2l1.3-2.1l-0.1-0.4l-2.3-0.6L107.6,104.4z M109.2,101.5l-1.3,2.1l0.1,0.4l2.3,0.6l0.5-0.2l1.3-2.1l-0.1-0.4
										l-2.3-0.6L109.2,101.5z M110.9,98.7l-1.3,2.1l0.1,0.4l2.3,0.6l0.5-0.2l1.3-2.1l-0.1-0.4l-2.3-0.6L110.9,98.7z M112.6,95.8
										l-1.3,2.1l0.1,0.4l2.3,0.6l0.5-0.2l1.3-2.1l-0.1-0.4l-2.3-0.6L112.6,95.8z M114.3,93l-1.3,2.1l0.1,0.4l2.3,0.6l0.5-0.2
										l1.3-2.1l-0.1-0.4l-2.3-0.6L114.3,93z M116,90.2l-1.3,2.1l0.1,0.4l2.3,0.6l0.5-0.2l1.3-2.1l-0.1-0.4l-2.3-0.6L116,90.2z
										 M117.7,87.3l-1.3,2.1l0.1,0.4l2.3,0.6l0.5-0.2l1.3-2.1l-0.1-0.4l-2.3-0.6C118.1,87.1,117.7,87.3,117.7,87.3z M109,108.1
										l-1.3,2.1l0.1,0.4l2.3,0.6l0.5-0.2l1.3-2.1l-0.1-0.4l-2.3-0.6L109,108.1z M110.7,105.2l-1.3,2.1l0.1,0.4l2.3,0.6l0.5-0.2
										l1.3-2.1l-0.1-0.4l-2.3-0.6L110.7,105.2z M112.4,102.4l-1.3,2.1l0.1,0.4l2.3,0.6l0.5-0.2l1.3-2.1l-0.1-0.4l-2.3-0.6
										L112.4,102.4z M114.1,99.5l-1.3,2.1l0.1,0.4l2.3,0.6l0.5-0.2l1.3-2.1l-0.1-0.4l-2.3-0.6L114.1,99.5z M115.7,96.7l-1.3,2.1
										l0.1,0.4l2.3,0.6l0.5-0.2l1.3-2.1l-0.1-0.4l-2.3-0.6L115.7,96.7z M117.4,93.8l-1.3,2.1l0.1,0.4l2.3,0.6l0.5-0.2l1.3-2.1
										l-0.1-0.4l-2.3-0.6L117.4,93.8z M119.1,91l-1.3,2.1l0.1,0.4l2.3,0.6l0.5-0.2l1.3-2.1l-0.1-0.4l-2.3-0.6L119.1,91z
										 M120.8,88.1l-1.3,2.1l0.1,0.4l2.3,0.6l0.5-0.2l1.3-2.1l-0.1-0.4l-2.3-0.6C121.3,87.9,120.8,88.1,120.8,88.1z" />
								</g>
                                <g>
									<polygon class="st28"
                                        points="126.3,88.6 112.1,112.4 125.9,116.1 140,92.3 									" />
                                    <path class="st29" d="M114.6,109.6l-1.3,2.1l0.1,0.4l2.3,0.6l0.5-0.2l1.3-2.1l-0.1-0.4l-2.3-0.6L114.6,109.6z M116.3,106.7
										l-1.3,2.1l0.1,0.4l2.3,0.6l0.5-0.2l1.3-2.1l-0.1-0.4l-2.3-0.6L116.3,106.7z M118,103.9l-1.3,2.1l0.1,0.4l2.3,0.6l0.5-0.2
										l1.3-2.1l-0.1-0.4l-2.3-0.6L118,103.9z M119.7,101l-1.3,2.1l0.1,0.4l2.3,0.6l0.5-0.2l1.3-2.1l-0.1-0.4l-2.3-0.6L119.7,101z
										 M121.3,98.2l-1.3,2.1l0.1,0.4l2.3,0.6l0.5-0.2l1.3-2.1l-0.1-0.4l-2.3-0.6L121.3,98.2z M123,95.3l-1.3,2.1l0.1,0.4l2.3,0.6
										l0.5-0.2l1.3-2.1l-0.1-0.4l-2.3-0.6L123,95.3z M124.7,92.5l-1.3,2.1l0.1,0.4l2.3,0.6l0.5-0.2l1.3-2.1l-0.1-0.4l-2.3-0.6
										L124.7,92.5z M126.4,89.6l-1.3,2.1l0.1,0.4l2.3,0.6l0.5-0.2l1.3-2.1l-0.1-0.4l-2.3-0.6L126.4,89.6z M117.7,110.4l-1.3,2.1
										l0.1,0.4l2.3,0.6l0.5-0.2l1.3-2.1l-0.1-0.4l-2.3-0.6L117.7,110.4z M119.4,107.6l-1.3,2.1l0.1,0.4l2.3,0.6l0.5-0.2l1.3-2.1
										l-0.1-0.4l-2.3-0.6L119.4,107.6z M121.1,104.7l-1.3,2.1l0.1,0.4l2.3,0.6l0.5-0.2l1.3-2.1l-0.1-0.4l-2.3-0.6L121.1,104.7z
										 M122.8,101.9l-1.3,2.1l0.1,0.4l2.3,0.6l0.5-0.2l1.3-2.1l-0.1-0.4l-2.3-0.6L122.8,101.9z M124.5,99l-1.3,2.1l0.1,0.4
										l2.3,0.6l0.5-0.2l1.3-2.1l-0.1-0.4l-2.3-0.6L124.5,99z M126.2,96.2l-1.3,2.1l0.1,0.4l2.3,0.6l0.5-0.2l1.3-2.1l-0.1-0.4
										l-2.3-0.6L126.2,96.2z M127.8,93.3l-1.3,2.1l0.1,0.4l2.3,0.6l0.5-0.2l1.3-2.1l-0.1-0.4l-2.3-0.6L127.8,93.3z M129.5,90.5
										l-1.3,2.1l0.1,0.4l2.3,0.6l0.5-0.2l1.3-2.1l-0.1-0.4l-2.3-0.6L129.5,90.5z M120.9,111.2l-1.3,2.1l0.1,0.4l2.3,0.6l0.5-0.2
										l1.3-2.1l-0.1-0.4l-2.3-0.6L120.9,111.2z M122.6,108.4l-1.3,2.1l0.1,0.4l2.3,0.6l0.5-0.2l1.3-2.1l-0.1-0.4l-2.3-0.6
										L122.6,108.4z M124.2,105.5l-1.3,2.1l0.1,0.4l2.3,0.6l0.5-0.2l1.3-2.1l-0.1-0.4l-2.3-0.6L124.2,105.5z M125.9,102.7
										l-1.3,2.1l0.1,0.4l2.3,0.6l0.5-0.2l1.3-2.1l-0.1-0.4l-2.3-0.6L125.9,102.7z M127.6,99.9l-1.3,2.1l0.1,0.4l2.3,0.6l0.5-0.2
										l1.3-2.1l-0.1-0.4l-2.3-0.6L127.6,99.9z M129.3,97l-1.3,2.1l0.1,0.4l2.3,0.6l0.5-0.2l1.3-2.1l-0.1-0.4l-2.3-0.6L129.3,97z
										 M131,94.2l-1.3,2.1l0.1,0.4l2.3,0.6l0.5-0.2l1.3-2.1l-0.1-0.4l-2.3-0.6L131,94.2z M132.7,91.3l-1.3,2.1l0.1,0.4l2.3,0.6
										l0.5-0.2l1.3-2.1l-0.1-0.4l-2.3-0.6L132.7,91.3z M124,112.1l-1.3,2.1l0.1,0.4l2.3,0.6l0.5-0.2l1.3-2.1l-0.1-0.4l-2.3-0.6
										L124,112.1z M125.7,109.2l-1.3,2.1l0.1,0.4l2.3,0.6l0.5-0.2l1.3-2.1l-0.1-0.4l-2.3-0.6L125.7,109.2z M127.4,106.4l-1.3,2.1
										l0.1,0.4l2.3,0.6l0.5-0.2l1.3-2.1l-0.1-0.4l-2.3-0.6L127.4,106.4z M129.1,103.5l-1.3,2.1l0.1,0.4l2.3,0.6l0.5-0.2l1.3-2.1
										l-0.1-0.4l-2.3-0.6L129.1,103.5z M130.7,100.7l-1.3,2.1l0.1,0.4l2.3,0.6l0.5-0.2l1.3-2.1l-0.1-0.4l-2.3-0.6L130.7,100.7z
										 M132.4,97.8l-1.3,2.1l0.1,0.4l2.3,0.6l0.5-0.2l1.3-2.1l-0.1-0.4l-2.3-0.6L132.4,97.8z M134.1,95l-1.3,2.1l0.1,0.4l2.3,0.6
										l0.5-0.2l1.3-2.1l-0.1-0.4l-2.3-0.6L134.1,95z M135.8,92.2l-1.3,2.1l0.1,0.4l2.3,0.6l0.5-0.2l1.3-2.1l-0.1-0.4l-2.3-0.6
										L135.8,92.2z" />
								</g>
                                <polygon class="st23"
                                    points="141.8,92.2 51.1,97.4 65.9,72 								" />
							</g>
                            <g>
								<polygon class="st20"
                                    points="147.8,174.4 147.8,193.7 143.1,195 138.4,196.2 138.4,176.9 143.1,175.6 								" />
                                <polygon class="st2"
                                    points="138.4,176.9 138.4,196.2 132.2,194.6 132.2,175.2 								" />
                                <polygon class="st18"
                                    points="147.8,174.4 143.1,175.6 138.4,176.9 132.2,175.2 136.9,174 141.6,172.7 								" />
                                <polygon class="st11"
                                    points="146.2,183.3 143.8,184 143.8,178.7 140,187.3 142.5,186.6 142.5,191.9 								" />
							</g>
						</g>
                        <g>
							<g>
								<path class="st10"
                                    d="M222.6,180c0,2.3-7.1,4.1-15.9,4.1s-15.9-1.9-15.9-4.1s7.1-4.1,15.9-4.1S222.6,177.7,222.6,180z" />
                                <path class="st3"
                                    d="M215.6,180.2c0,1.5-5.4,2.8-12,2.8s-12-1.2-12-2.8s5.4-2.8,12-2.8S215.6,178.7,215.6,180.2z" />
							</g>
                            <path class="st2" d="M207.5,176.6c-0.4-0.2,0.4-2.4,0.5-4.1c0,0-1.8,3.1-1.2,4.7c-0.8,0.6-2.2,1.4-3.2,1.9
								c-0.2-2.6-0.4-4.3-0.5-5.6c0-0.3,3-5.7,2.8-5.5c-1.2,1.6-1.8,1.9-2.9,3.7c-0.3,0.6-1.1-4.8-1.1-4.8c-0.4,0.3,0.1,4-0.1,4.8
								c-0.1,0.5-0.2,1.1-0.2,1.8c0,0.7-0.2,2.5-0.2,3.3c-0.8-0.2-2.3-2-4.2-5.5c0,0,1.5,6,4,6.7c0,0.3,0,0.5,0,0.8
								c-3.1-1.1-8.6-2.7-10.9-4.6c0,0,1.1,2.7,10.4,5.2l0.4,0.4c0,0,0,0.6,0.7,0.7c0.5,0,1.2-0.1,1.5,0.4c0.3,0.4,0.6-0.1,1.5-0.7
								c0.3-0.2,0.8-0.7,0.8-0.7c3.6-2.7,7.5-7.1,7.5-7.1C212.1,173.3,208.2,175.8,207.5,176.6L207.5,176.6z" />
                            <g>
								<path class="st11" d="M218.1,169.4c-1.1-1-2.7-1.2-4-0.6c-0.8-2.8-3.1-4.8-5.9-5.2c0.9-1.2,1.4-2.8,1.3-4.4
									c-0.1-4-3.4-7.2-7.3-7.1c-3.7,0.1-6.7,3.1-6.9,6.8c-0.8-0.3-1.7-0.5-2.6-0.4c-3.9,0.1-7,3.5-6.9,7.5c0,0.8,0.2,1.6,0.5,2.3
									c-0.6,1.1-1,2.4-0.9,3.8c0.1,4,3.4,7.2,7.3,7.1c1.2,0,2.4-0.4,3.4-1c0.1,0.1,0.1,0.1,0.2,0.2c1.8,1.7,4.6,1.5,6.3-0.3
									c0.3-0.4,0.6-0.8,0.8-1.2c1.2,0.8,2.6,1.2,4.1,1.2c0.9,0,1.7-0.2,2.5-0.6c0.1,0.5,0.4,1,0.8,1.3c1.1,1,2.8,0.9,3.8-0.2
									c0.7-0.8,0.9-1.8,0.6-2.7c1.1,0.1,2.2-0.3,3-1.2C219.7,173.2,219.6,170.8,218.1,169.4L218.1,169.4z" />
                                <path class="st8"
                                    d="M204.6,156.4c0,0.7-0.6,1.3-1.3,1.3s-1.3-0.6-1.3-1.3c0-0.7,0.6-1.3,1.3-1.3S204.6,155.7,204.6,156.4z" />
                                <path class="st8" d="M201.5,155.8c0,0.3-0.3,0.6-0.6,0.6c-0.3,0-0.6-0.3-0.6-0.6c0-0.3,0.3-0.6,0.6-0.6
									C201.2,155.2,201.5,155.5,201.5,155.8z" />
                                <path class="st8" d="M216.1,169.8c0,0.3-0.3,0.6-0.6,0.6c-0.3,0-0.6-0.3-0.6-0.6c0-0.3,0.3-0.6,0.6-0.6
									C215.8,169.2,216.1,169.5,216.1,169.8z" />
                                <g class="st12">
									<path class="st9" d="M192.7,179.1c1.2,0,2.4-0.4,3.4-1c0.1,0.1,0.1,0.1,0.2,0.2c1.8,1.7,4.6,1.5,6.3-0.3
										c0.3-0.4,0.6-0.8,0.8-1.2c1.2,0.8,2.6,1.2,4.1,1.2c0.9,0,1.7-0.2,2.5-0.6c0.1,0.5,0.4,1,0.8,1.3c1.1,1,2.8,0.9,3.8-0.2
										c0.7-0.8,0.9-1.8,0.6-2.7c1.1,0.1,2.2-0.3,3-1.2c1.2-1.3,1.3-3.2,0.4-4.6c-0.5,1.1-1.1,2.5-1.8,3.1c-1.3,1.1-2.7-1.3-4-2.6
										c-1.3-1.3-1.9,0.1-3.7,1c-1.8,0.9-3.5-0.7-6.2-1.6c-2.7-0.9-7.4,3-8.9,3.5c-1.5,0.5-3.8,1.9-6.6,0.6c-0.9-0.4-1.5-1-2-1.5
										C185.8,176.3,189,179.2,192.7,179.1L192.7,179.1z" />
                                    <path class="st9"
                                        d="M208.5,169.5c0,0.8-0.7,1.5-1.5,1.5s-1.5-0.7-1.5-1.5s0.7-1.5,1.5-1.5S208.5,168.7,208.5,169.5z" />
                                    <path class="st9"
                                        d="M191.2,167.8c0,0.7-0.6,1.3-1.3,1.3s-1.3-0.6-1.3-1.3s0.6-1.3,1.3-1.3S191.2,167.1,191.2,167.8z" />
                                    <path class="st9"
                                        d="M210.3,169.1c0,0.4-0.3,0.7-0.7,0.7s-0.7-0.3-0.7-0.7s0.3-0.7,0.7-0.7S210.3,168.7,210.3,169.1z" />
                                    <path class="st9" d="M188.1,167.7c0,0.4-0.3,0.7-0.7,0.7c-0.4,0-0.7-0.3-0.7-0.7c0-0.4,0.3-0.7,0.7-0.7
										C187.8,167,188.1,167.3,188.1,167.7z" />
                                    <path class="st9" d="M192,165.7c0,0.4-0.3,0.7-0.7,0.7c-0.4,0-0.7-0.3-0.7-0.7s0.3-0.7,0.7-0.7
										C191.6,165,192,165.3,192,165.7z" />
								</g>
                                <path class="st8" d="M202.2,152c-3.7,0.1-6.7,3.1-6.9,6.8c-0.8-0.3-1.7-0.4-2.6-0.4c-2.7,0.1-5.1,1.7-6.2,4.1
									c3.1-2.3,7.9-1.6,10.2-1.1c0.2,0,0.4,0,0.5-0.2c0.1-0.2,0.1-0.4,0-0.5l-0.7-0.8c-0.2-0.3-0.3-0.6-0.1-0.9
									c1-1.7,4.9-7.1,11.8-3.7C206.9,153.2,204.7,151.9,202.2,152L202.2,152z" />
                                <path class="st8" d="M208.2,163.5c-3.9,0.4-6.7,2.6-6.7,2.6s4.5-1.3,8.6-0.9c0.6,0.1,1.5,0.3,2.4,0.6
									C211.4,164.6,209.9,163.8,208.2,163.5C208.2,163.5,208.2,163.5,208.2,163.5L208.2,163.5z" />
                                <path class="st11" d="M200.5,173.5c0,0.7-0.6,1.3-1.3,1.3c-0.7,0-1.3-0.6-1.3-1.3c0-0.7,0.6-1.3,1.3-1.3
									C199.9,172.2,200.5,172.7,200.5,173.5z" />
                                <path class="st11" d="M200.9,171.2c0,0.3-0.3,0.6-0.6,0.6c-0.3,0-0.6-0.3-0.6-0.6c0-0.3,0.3-0.6,0.6-0.6
									C200.6,170.6,200.9,170.9,200.9,171.2z" />
							</g>
						</g>
					</g>

                    <linearGradient id="SVGID_00000008850022470326711970000013291362353266485146_"
                        gradientUnits="userSpaceOnUse" x1="6247.9893" y1="-4802.3584" x2="6264.0972"
                        y2="-4835.6343"
                        gradientTransform="matrix(0.4357 -0.9001 -0.9001 -0.4357 -6894.0825 3687.1116)">
						<stop offset="0" style="stop-color:#FFFFFF" />
                        <stop offset="5.000000e-02" style="stop-color:#E1E1E1;stop-opacity:0.88" />
                        <stop offset="0.15" style="stop-color:#ADADAD;stop-opacity:0.68" />
                        <stop offset="0.26" style="stop-color:#7E7E7E;stop-opacity:0.5" />
                        <stop offset="0.37" style="stop-color:#575757;stop-opacity:0.34" />
                        <stop offset="0.48" style="stop-color:#373737;stop-opacity:0.22" />
                        <stop offset="0.6" style="stop-color:#1F1F1F;stop-opacity:0.12" />
                        <stop offset="0.72" style="stop-color:#0D0D0D;stop-opacity:5.000000e-02" />
                        <stop offset="0.85" style="stop-color:#030303;stop-opacity:1.000000e-02" />
                        <stop offset="1" style="stop-color:#000000;stop-opacity:0" />
					</linearGradient>

                    <polygon
                        style="opacity:0.7;fill:url(#SVGID_00000008850022470326711970000013291362353266485146_);enable-background:new    ;"
                        points="
						187.7,103 187.7,208.4 150.7,184 150.7,149.5 					" />

                    <linearGradient id="SVGID_00000176012124219207183830000013313159481503220903_"
                        gradientUnits="userSpaceOnUse" x1="3148.5454" y1="1593.6543" x2="3164.6523"
                        y2="1560.3734"
                        gradientTransform="matrix(-0.4357 -0.9001 0.9001 -0.4357 24.8129 3687.1116)">
						<stop offset="0" style="stop-color:#FFFFFF" />
                        <stop offset="5.000000e-02" style="stop-color:#E1E1E1;stop-opacity:0.88" />
                        <stop offset="0.15" style="stop-color:#ADADAD;stop-opacity:0.68" />
                        <stop offset="0.26" style="stop-color:#7E7E7E;stop-opacity:0.5" />
                        <stop offset="0.37" style="stop-color:#575757;stop-opacity:0.34" />
                        <stop offset="0.48" style="stop-color:#373737;stop-opacity:0.22" />
                        <stop offset="0.6" style="stop-color:#1F1F1F;stop-opacity:0.12" />
                        <stop offset="0.72" style="stop-color:#0D0D0D;stop-opacity:5.000000e-02" />
                        <stop offset="0.85" style="stop-color:#030303;stop-opacity:1.000000e-02" />
                        <stop offset="1" style="stop-color:#000000;stop-opacity:0" />
					</linearGradient>

                    <polygon
                        style="opacity:0.7;fill:url(#SVGID_00000176012124219207183830000013313159481503220903_);enable-background:new    ;"
                        points="
						50.4,116.8 50.4,200.8 87.4,178.3 87.4,140.4 					" />

                    <linearGradient id="SVGID_00000006682838046416445190000007912628126126133650_"
                        gradientUnits="userSpaceOnUse" x1="157.2955" y1="143.2004" x2="200.5282"
                        y2="143.2004" gradientTransform="matrix(1 0 0 -1 0 252)">
						<stop offset="0" style="stop-color:#FFFFFF" />
                        <stop offset="5.000000e-02" style="stop-color:#E1E1E1;stop-opacity:0.88" />
                        <stop offset="0.15" style="stop-color:#ADADAD;stop-opacity:0.68" />
                        <stop offset="0.26" style="stop-color:#7E7E7E;stop-opacity:0.5" />
                        <stop offset="0.37" style="stop-color:#575757;stop-opacity:0.34" />
                        <stop offset="0.48" style="stop-color:#373737;stop-opacity:0.22" />
                        <stop offset="0.6" style="stop-color:#1F1F1F;stop-opacity:0.12" />
                        <stop offset="0.72" style="stop-color:#0D0D0D;stop-opacity:5.000000e-02" />
                        <stop offset="0.85" style="stop-color:#030303;stop-opacity:1.000000e-02" />
                        <stop offset="1" style="stop-color:#000000;stop-opacity:0" />
					</linearGradient>

                    <path
                        style="opacity:0.7;fill:url(#SVGID_00000006682838046416445190000007912628126126133650_);enable-background:new    ;"
                        d="
						M165.7,98.6c-3.4,0.4-6.7,3.7-8,8.3c-1.2,4.6,0,9.1,2.8,11.1l40,25.3V74.3L165.7,98.6L165.7,98.6z" />

                    <radialGradient id="SVGID_00000150070053080442979450000014960995331271641791_"
                        cx="165.1603" cy="89.2283" r="73.1725"
                        gradientTransform="matrix(1 0 0 -1 3.606023e-04 251.9995)"
                        gradientUnits="userSpaceOnUse">
						<stop offset="0" style="stop-color:#FFFFFF" />
                        <stop offset="0.15" style="stop-color:#FFFFFF;stop-opacity:0.77" />
                        <stop offset="0.32" style="stop-color:#FFFFFF;stop-opacity:0.54" />
                        <stop offset="0.49" style="stop-color:#FFFFFF;stop-opacity:0.35" />
                        <stop offset="0.64" style="stop-color:#FFFFFF;stop-opacity:0.2" />
                        <stop offset="0.78" style="stop-color:#FFFFFF;stop-opacity:9.000000e-02" />
                        <stop offset="0.91" style="stop-color:#FFFFFF;stop-opacity:2.000000e-02" />
                        <stop offset="1" style="stop-color:#FFFFFF;stop-opacity:0" />
					</radialGradient>

                    <circle
                        style="opacity:0.6;fill:url(#SVGID_00000150070053080442979450000014960995331271641791_);enable-background:new    ;"
                        cx="165.2" cy="162.8" r="73.2" />

                    <radialGradient id="SVGID_00000061473777092249713230000002780956773261524395_"
                        cx="73.165" cy="95.5579" r="73.1725" fx="145.3225" fy="107.703"
                        gradientTransform="matrix(1 0 0 -1 7.568386e-03 251.9984)"
                        gradientUnits="userSpaceOnUse">
						<stop offset="0" style="stop-color:#FFFFFF" />
                        <stop offset="0.15" style="stop-color:#C4C4C4;stop-opacity:0.77" />
                        <stop offset="0.32" style="stop-color:#898989;stop-opacity:0.54" />
                        <stop offset="0.49" style="stop-color:#585858;stop-opacity:0.35" />
                        <stop offset="0.64" style="stop-color:#313131;stop-opacity:0.2" />
                        <stop offset="0.78" style="stop-color:#161616;stop-opacity:9.000000e-02" />
                        <stop offset="0.91" style="stop-color:#050505;stop-opacity:2.000000e-02" />
                        <stop offset="1" style="stop-color:#000000;stop-opacity:0" />
					</radialGradient>

                    <circle
                        style="opacity:0.6;fill:url(#SVGID_00000061473777092249713230000002780956773261524395_);enable-background:new    ;"
                        cx="73.2" cy="156.4" r="73.2" />
				</g>
                <g>
					<circle class="st35" cx="173.9" cy="44.5" r="15.8" />
                    <circle class="st36" cx="173.9" cy="44.5" r="8.3" />
                    <path class="st37" d="M179,37.9c0.3,0.9,0.4,1.9,0.4,2.9c0,5.6-4.6,10.2-10.2,10.2c-0.2,0-0.4,0-0.7,0c1.4,1.2,3.3,1.9,5.3,1.9
						c4.6,0,8.3-3.7,8.3-8.3C182.3,41.8,181,39.5,179,37.9z" />
				</g>
			</g>
		</g>
	</g>
</g>
</svg>
